<?xml version="1.0" encoding="UTF-8" standalone="no"?>
<svg
   xmlns:dc="http://purl.org/dc/elements/1.1/"
   xmlns:cc="http://creativecommons.org/ns#"
   xmlns:rdf="http://www.w3.org/1999/02/22-rdf-syntax-ns#"
   xmlns:svg="http://www.w3.org/2000/svg"
   xmlns="http://www.w3.org/2000/svg"
   xmlns:sodipodi="http://sodipodi.sourceforge.net/DTD/sodipodi-0.dtd"
   xmlns:inkscape="http://www.inkscape.org/namespaces/inkscape"
   version="1"
   viewBox="0 0 48 48"
   enable-background="new 0 0 48 48"
   id="svg2"
   inkscape:version="0.91 r13725"
   sodipodi:docname="collaboration.svg"
   inkscape:export-filename="C:\Users\Brandon\Documents\GitHub\PARTs_Website\contents\resourceIcons\collaboration.png"
   inkscape:export-xdpi="675"
   inkscape:export-ydpi="675">
  <metadata
     id="metadata24">
    <rdf:RDF>
      <cc:Work
         rdf:about="">
        <dc:format>image/svg+xml</dc:format>
        <dc:type
           rdf:resource="http://purl.org/dc/dcmitype/StillImage" />
      </cc:Work>
    </rdf:RDF>
  </metadata>
  <defs
     id="defs22" />
  <sodipodi:namedview
     pagecolor="#ffffff"
     bordercolor="#666666"
     borderopacity="1"
     objecttolerance="10"
     gridtolerance="10"
     guidetolerance="10"
     inkscape:pageopacity="0"
     inkscape:pageshadow="2"
     inkscape:window-width="690"
     inkscape:window-height="480"
     id="namedview20"
     showgrid="false"
     inkscape:zoom="4.9166667"
     inkscape:cx="24"
     inkscape:cy="24"
     inkscape:window-x="0"
     inkscape:window-y="0"
     inkscape:window-maximized="0"
     inkscape:current-layer="svg2" />
  <path
     fill="#1565C0"
     d="M25,22h13l6,6V11c0-2.2-1.8-4-4-4H25c-2.2,0-4,1.8-4,4v7C21,20.2,22.8,22,25,22z"
     id="path4" />
  <path
     fill="#2196F3"
     d="M23,19H10l-6,6V8c0-2.2,1.8-4,4-4h15c2.2,0,4,1.8,4,4v7C27,17.2,25.2,19,23,19z"
     id="path6" />
  <g
     fill="#FFA726"
     id="g8">
    <circle
       cx="12"
       cy="31"
       r="5"
       id="circle10" />
    <circle
       cx="36"
       cy="31"
       r="5"
       id="circle12" />
  </g>
  <g
     fill="#607D8B"
     id="g14">
    <path
       d="M20,42c0,0-2.2-4-8-4s-8,4-8,4v2h16V42z"
       id="path16" />
    <path
       d="M44,42c0,0-2.2-4-8-4s-8,4-8,4v2h16V42z"
       id="path18" />
  </g>
</svg>
