<?xml version="1.0" encoding="UTF-8" standalone="no"?>
<svg
   xmlns:dc="http://purl.org/dc/elements/1.1/"
   xmlns:cc="http://creativecommons.org/ns#"
   xmlns:rdf="http://www.w3.org/1999/02/22-rdf-syntax-ns#"
   xmlns:svg="http://www.w3.org/2000/svg"
   xmlns="http://www.w3.org/2000/svg"
   xmlns:sodipodi="http://sodipodi.sourceforge.net/DTD/sodipodi-0.dtd"
   xmlns:inkscape="http://www.inkscape.org/namespaces/inkscape"
   version="1"
   viewBox="0 0 48 48"
   enable-background="new 0 0 48 48"
   id="svg2"
   inkscape:version="0.91 r13725"
   sodipodi:docname="survey.svg"
   inkscape:export-filename="C:\Users\Brandon\Documents\GitHub\PARTs_Website\contents\resourceIcons\survey.png"
   inkscape:export-xdpi="844.77271"
   inkscape:export-ydpi="844.77271">
  <metadata
     id="metadata30">
    <rdf:RDF>
      <cc:Work
         rdf:about="">
        <dc:format>image/svg+xml</dc:format>
        <dc:type
           rdf:resource="http://purl.org/dc/dcmitype/StillImage" />
      </cc:Work>
    </rdf:RDF>
  </metadata>
  <defs
     id="defs28" />
  <sodipodi:namedview
     pagecolor="#ffffff"
     bordercolor="#666666"
     borderopacity="1"
     objecttolerance="10"
     gridtolerance="10"
     guidetolerance="10"
     inkscape:pageopacity="0"
     inkscape:pageshadow="2"
     inkscape:window-width="690"
     inkscape:window-height="480"
     id="namedview26"
     showgrid="false"
     inkscape:zoom="4.9166667"
     inkscape:cx="24"
     inkscape:cy="24"
     inkscape:window-x="0"
     inkscape:window-y="0"
     inkscape:window-maximized="0"
     inkscape:current-layer="svg2" />
  <path
     fill="#455A64"
     d="M36,4H26c0,1.1-0.9,2-2,2s-2-0.9-2-2H12C9.8,4,8,5.8,8,8v32c0,2.2,1.8,4,4,4h24c2.2,0,4-1.8,4-4V8 C40,5.8,38.2,4,36,4z"
     id="path4" />
  <path
     fill="#fff"
     d="M36,41H12c-0.6,0-1-0.4-1-1V8c0-0.6,0.4-1,1-1h24c0.6,0,1,0.4,1,1v32C37,40.6,36.6,41,36,41z"
     id="path6" />
  <g
     fill="#90A4AE"
     id="g8">
    <path
       d="M26,4c0,1.1-0.9,2-2,2s-2-0.9-2-2h-7v4c0,1.1,0.9,2,2,2h14c1.1,0,2-0.9,2-2V4H26z"
       id="path10" />
    <path
       d="M24,0c-2.2,0-4,1.8-4,4s1.8,4,4,4s4-1.8,4-4S26.2,0,24,0z M24,6c-1.1,0-2-0.9-2-2s0.9-2,2-2s2,0.9,2,2 S25.1,6,24,6z"
       id="path12" />
  </g>
  <g
     fill="#CFD8DC"
     id="g14">
    <rect
       x="21"
       y="20"
       width="12"
       height="2"
       id="rect16" />
    <rect
       x="15"
       y="19"
       width="4"
       height="4"
       id="rect18" />
  </g>
  <g
     fill="#03A9F4"
     id="g20">
    <rect
       x="21"
       y="29"
       width="12"
       height="2"
       id="rect22" />
    <rect
       x="15"
       y="28"
       width="4"
       height="4"
       id="rect24" />
  </g>
</svg>
