<?xml version="1.0" encoding="UTF-8" standalone="no"?>
<svg
   xmlns:dc="http://purl.org/dc/elements/1.1/"
   xmlns:cc="http://creativecommons.org/ns#"
   xmlns:rdf="http://www.w3.org/1999/02/22-rdf-syntax-ns#"
   xmlns:svg="http://www.w3.org/2000/svg"
   xmlns="http://www.w3.org/2000/svg"
   xmlns:sodipodi="http://sodipodi.sourceforge.net/DTD/sodipodi-0.dtd"
   xmlns:inkscape="http://www.inkscape.org/namespaces/inkscape"
   width="24"
   height="24"
   viewBox="0 0 24 24"
   version="1.1"
   id="svg4"
   sodipodi:docname="Twitter.svg"
   inkscape:version="0.92.1 r">
  <metadata
     id="metadata10">
    <rdf:RDF>
      <cc:Work
         rdf:about="">
        <dc:format>image/svg+xml</dc:format>
        <dc:type
           rdf:resource="http://purl.org/dc/dcmitype/StillImage" />
      </cc:Work>
    </rdf:RDF>
  </metadata>
  <defs
     id="defs8" />
  <sodipodi:namedview
     pagecolor="#ffffff"
     bordercolor="#666666"
     borderopacity="1"
     objecttolerance="10"
     gridtolerance="10"
     guidetolerance="10"
     inkscape:pageopacity="0"
     inkscape:pageshadow="2"
     inkscape:window-width="1920"
     inkscape:window-height="1020"
     id="namedview6"
     showgrid="false"
     inkscape:zoom="9.8333333"
     inkscape:cx="12"
     inkscape:cy="12"
     inkscape:window-x="0"
     inkscape:window-y="28"
     inkscape:window-maximized="1"
     inkscape:current-layer="layer1" />
  <path
     d="M 12,2 C 17.514,2 22,6.486 22,12 22,17.514 17.514,22 12,22 6.486,22 2,17.514 2,12 2,6.486 6.486,2 12,2 Z M 12,0 C 5.373,0 0,5.373 0,12 0,18.627 5.373,24 12,24 18.627,24 24,18.627 24,12 24,5.373 18.627,0 12,0 Z"
     id="path2"
     inkscape:connector-curvature="0"
     sodipodi:nodetypes="ssssssssss" />
  <g
     inkscape:groupmode="layer"
     id="layer1"
     inkscape:label="bird"
     style="display:inline">
    <path
       id="path818"
       d="M 18.5,8.778 C 18.059,8.974 17.584,9.106 17.086,9.166 17.595,8.861 17.984,8.379 18.169,7.804 17.693,8.086 17.166,8.291 16.605,8.401 16.157,7.922 15.516,7.623 14.809,7.623 c -1.59,0 -2.758,1.483 -2.399,3.023 C 10.365,10.543 8.55,9.563 7.336,8.074 6.691,9.18 7.002,10.628 8.098,11.361 7.695,11.348 7.316,11.237 6.984,11.053 c -0.027,1.14 0.791,2.207 1.975,2.445 -0.346,0.094 -0.726,0.116 -1.112,0.042 0.313,0.978 1.224,1.689 2.3,1.709 -1.037,0.812 -2.34,1.175 -3.647,1.021 1.09,0.699 2.383,1.106 3.773,1.106 4.572,0 7.154,-3.861 6.998,-7.324 0.482,-0.346 0.899,-0.78 1.229,-1.274 z"
       inkscape:connector-curvature="0"
       sodipodi:nodetypes="ccccsccccccccscc"
       style="fill:#2daae1;fill-opacity:1" />
  </g>
</svg>
