<?xml version="1.0" encoding="UTF-8" standalone="no"?>
<!-- Created with Inkscape (http://www.inkscape.org/) -->

<svg
   xmlns:dc="http://purl.org/dc/elements/1.1/"
   xmlns:cc="http://creativecommons.org/ns#"
   xmlns:rdf="http://www.w3.org/1999/02/22-rdf-syntax-ns#"
   xmlns:svg="http://www.w3.org/2000/svg"
   xmlns="http://www.w3.org/2000/svg"
   xmlns:sodipodi="http://sodipodi.sourceforge.net/DTD/sodipodi-0.dtd"
   xmlns:inkscape="http://www.inkscape.org/namespaces/inkscape"
   width="1058.1631"
   height="1148.5071"
   id="svg2"
   version="1.1"
   inkscape:version="0.91 r13725"
   sodipodi:docname="BeanieBot.svg"
   inkscape:export-filename="C:\Users\Brandon\Box Sync\Robotics\Graphics\BeanieBot\BeanieBotVector.png"
   inkscape:export-xdpi="600"
   inkscape:export-ydpi="600">
  <defs
     id="defs4" />
  <sodipodi:namedview
     id="base"
     pagecolor="#ffffff"
     bordercolor="#666666"
     borderopacity="1.0"
     inkscape:pageopacity="0.0"
     inkscape:pageshadow="2"
     inkscape:zoom="1"
     inkscape:cx="457.65497"
     inkscape:cy="425.39301"
     inkscape:document-units="px"
     inkscape:current-layer="layer1"
     showgrid="false"
     inkscape:window-width="1280"
     inkscape:window-height="657"
     inkscape:window-x="-8"
     inkscape:window-y="-8"
     inkscape:window-maximized="1"
     showguides="true"
     fit-margin-top="0"
     fit-margin-left="0"
     fit-margin-right="0"
     fit-margin-bottom="0">
    <inkscape:grid
       type="xygrid"
       id="grid3078"
       originx="-9.975256"
       originy="-2.9947968" />
  </sodipodi:namedview>
  <metadata
     id="metadata7">
    <rdf:RDF>
      <cc:Work
         rdf:about="">
        <dc:format>image/svg+xml</dc:format>
        <dc:type
           rdf:resource="http://purl.org/dc/dcmitype/StillImage" />
        <dc:title />
      </cc:Work>
    </rdf:RDF>
  </metadata>
  <g
     inkscape:groupmode="layer"
     id="layer1"
     inkscape:label="BeanieBot"
     style="display:inline">
    <path
       style="display:inline;fill:#000000;stroke:#000000;stroke-width:1px;stroke-linecap:butt;stroke-linejoin:miter;stroke-opacity:1"
       d="m 203.52473,468.00188 -37.75,-75.75 -0.25,-67.24999 5,-27.25 19,-37.75 18,-28.25 34.25,-47.5 32,-37.99999 35.25,-37.75 43.49999,-48.5 15.5,-14.249999 38.5,-21.499999 33.5,-14 17,-4.7499993 18,-2.75 15.5,-2.25000002 23.5,1.25000002 38.49999,2.5 49,6.7499993 39.5,9.25 82.75,27.749999 56.74999,50.75 67.75,103.249989 17,90 4.5,23.5 -0.25,77.74999 -14.25,46.5 -29.25,33.5 -620.24997,-0.25 z"
       id="path3190-6"
       inkscape:connector-curvature="0" />
    <rect
       style="display:inline;fill:#808080;fill-opacity:1"
       id="rect3086-9"
       width="521.1377"
       height="164.04878"
       x="279.93851"
       y="343.27881" />
    <path
       style="display:inline;fill:#2e3094;fill-opacity:1;stroke:#2e3094;stroke-width:1px;stroke-linecap:round;stroke-linejoin:miter;stroke-opacity:1"
       d="m 216.89973,469.00188 63.5,0.25 3.625,-7.5 15.625,-14.25 7.875,-6.875 13.375,-8.75 20.99999,-13.375 12.125,-6.625 17.125,-6.75 5.625,-2.375 11.375,-4.375 12.125,-2.5 16.75,-3.75 21.125,-5.25 60.625,-14.875 32.875,-7.87499 36.12499,-7.375 28.625,-3.625 13.5,-2.875 87.125,-1.25 23.5,6.875 12.375,4.125 16.125,7.99999 35.37499,20.125 6.25,6.125 1.5,75.375 25.625,0 3.25,-9.625 24,-27 11.375,-42.25 0.75,-72.99999 -7.5,-41.125 -7.5,-42.125 -1,-1.25 -10.875,2.75 -62.49999,-32 c 0,0 -57.75,-29.625 -58.375,-29.75 -0.625,-0.125 -34.25,-4.25 -34.25,-4.25 l -96.125,-0.5 -80.24999,13.5 -65.75,33.25 -60.375,37.125 -69.87499,38.125 -56,35.75 -23,34.875 -14.5,49.62499 1.125,14.75 -8.125,11.625 z"
       id="path3193-3"
       inkscape:connector-curvature="0" />
    <rect
       style="display:inline;fill:#000000;fill-opacity:0;stroke:#2e3094;stroke-width:1.75603449;stroke-linecap:round;stroke-linejoin:miter;stroke-opacity:1"
       id="rect3080-6"
       width="17.854446"
       height="77.951973"
       x="790.65381"
       y="394.01895" />
    <rect
       style="display:inline;fill:#000000"
       id="rect3771-9"
       width="885.01984"
       height="556.08899"
       x="86.936241"
       y="467.37598" />
    <rect
       style="display:inline;fill:#808080;fill-opacity:1"
       id="rect3774-7"
       width="864.96893"
       height="536.22559"
       x="97.037025"
       y="477.42636" />
    <path
       style="display:inline;fill:#000000;fill-opacity:1"
       d="M 0.025390625 467.35938 L 0.025390625 549.57812 L 0 549.57812 L 0 694.6875 L 0.02734375 694.6875 L 0.02734375 769.36719 L 149.94727 769.36719 L 149.94727 913.3457 L 208.86328 913.3457 L 208.86328 913.41992 L 274.04297 913.41992 L 274.04297 865.40625 L 209.16211 865.40625 L 209.16211 769.11133 L 209.14648 769.11133 L 209.14648 684.42383 L 209.01562 684.42383 L 209.01562 658.36328 L 274.04297 658.36328 L 274.04297 610.34961 L 208.86328 610.34961 L 208.86328 610.35547 L 150.05273 610.35547 L 150.05273 684.42383 L 54.019531 684.42383 L 54.019531 550.35938 L 92.634766 550.35938 L 92.634766 467.35938 L 0.025390625 467.35938 z "
       id="rect3777-3" />
    <path
       style="display:inline;fill:#2e3094;fill-opacity:1"
       d="M 11.029297 478.37891 L 11.029297 539.37695 L 11.025391 539.37695 L 11.025391 759.37305 L 42.173828 759.37305 L 42.173828 759.38086 L 162.02344 759.38086 L 162.02344 902.38281 L 190.35352 902.38281 L 190.35352 902.39062 L 263.02344 902.39062 L 263.02344 876.39648 L 198.02148 876.39648 L 198.02148 759.38086 L 198.02148 759.13672 L 198.02148 699.87695 L 198.02148 694.37109 L 198.02148 648.37891 L 263.01953 648.37891 L 263.01953 622.38477 L 195.17383 622.38477 L 195.17383 622.40625 L 162.02344 622.40625 L 162.02344 694.37109 L 44.013672 694.37109 L 44.013672 540.41406 L 87.021484 540.41406 L 87.021484 478.37891 L 11.029297 478.37891 z "
       id="rect3827-1" />
    <path
       style="display:inline;fill:#000000;fill-opacity:1"
       d="M 965.5293 467.36133 L 965.5293 550.36133 L 1004.1445 550.36133 L 1004.1445 684.42578 L 908.10938 684.42578 L 908.10938 610.35742 L 849.29883 610.35742 L 849.29883 610.35352 L 784.12109 610.35352 L 784.12109 658.36719 L 849.14844 658.36719 L 849.14844 684.42578 L 849.01562 684.42578 L 849.01562 769.11523 L 849.00195 769.11523 L 849.00195 865.4082 L 784.12109 865.4082 L 784.12109 913.42188 L 849.29883 913.42188 L 849.29883 913.34766 L 908.21484 913.34766 L 908.21484 769.37109 L 1058.1367 769.37109 L 1058.1367 694.69141 L 1058.1641 694.69141 L 1058.1641 549.58203 L 1058.1387 549.58203 L 1058.1387 467.36133 L 965.5293 467.36133 z "
       id="rect3777-1-7" />
    <path
       style="display:inline;fill:#ff6a00;fill-opacity:1"
       d="M 971.14258 478.38086 L 971.14258 540.41602 L 1014.1504 540.41602 L 1014.1504 694.37305 L 860.14062 694.37305 L 860.14062 759.38477 L 860.14258 759.38477 L 860.14258 876.40039 L 795.13867 876.40039 L 795.13867 902.39453 L 867.81055 902.39453 L 867.81055 902.38477 L 896.14062 902.38477 L 896.14062 759.38477 L 1015.9883 759.38477 L 1015.9883 759.375 L 1047.1387 759.375 L 1047.1387 539.37891 L 1047.1348 539.37891 L 1047.1348 478.38086 L 971.14258 478.38086 z M 795.14258 622.38672 L 795.14258 648.38086 L 862.98828 648.38086 L 862.98828 622.38672 L 795.14258 622.38672 z "
       id="rect3827-8-0" />
    <rect
       style="display:inline;fill:#ff6a00;fill-opacity:1"
       id="rect3833-5-8"
       width="35.997658"
       height="77.471619"
       x="-896.13977"
       y="622.40808"
       transform="scale(-1,1)" />
    <rect
       style="display:inline;fill:#000000;fill-opacity:1"
       id="rect3060-9"
       width="186.00281"
       height="130.19002"
       x="263.02313"
       y="1018.3123" />
    <rect
       style="display:inline;fill:#808080;fill-opacity:1"
       id="rect3062-6"
       width="167.99646"
       height="116.99702"
       x="272.02838"
       y="1022.5049" />
    <rect
       style="display:inline;fill:#000000;fill-opacity:1"
       id="rect3060-1-2"
       width="186.00281"
       height="130.19002"
       x="611.02332"
       y="1018.3171" />
    <rect
       style="display:inline;fill:#808080;fill-opacity:1"
       id="rect3062-1-1"
       width="167.99646"
       height="116.99702"
       x="620.02856"
       y="1022.5096" />
    <ellipse
       ry="19.79899"
       rx="19.843184"
       style="display:inline;fill:#000000;fill-opacity:1"
       id="path3095-9"
       cx="454.4613"
       cy="434.05359" />
    <ellipse
       ry="10.032078"
       rx="10.021029"
       style="display:inline;fill:#ffffff;fill-opacity:1"
       id="path3101-3"
       cx="454.00836"
       cy="433.47913" />
    <ellipse
       ry="19.79899"
       rx="19.843184"
       style="display:inline;fill:#000000;fill-opacity:1"
       id="path3095-4-4"
       cx="601.42114"
       cy="434.04736" />
    <ellipse
       ry="10.032078"
       rx="10.021029"
       style="display:inline;fill:#ffffff;fill-opacity:1"
       id="path3101-0-1"
       cx="600.9682"
       cy="433.47287" />
    <path
       style="display:inline;fill:#808080;fill-opacity:1;stroke:#808080;stroke-width:1px;stroke-linecap:butt;stroke-linejoin:miter;stroke-opacity:1"
       d="m 201.62643,438.91502 8.13173,-3.0052 10.25305,-14.31891 -2.47487,-30.40559 10.42982,-25.45585 7.77818,-17.67766 9.89949,-15.55635 18.6309,-13.36857 27,-18.125 26.5,-15 26.12499,-14.875 36.375,-19.25 30.5,-17.5 25.43438,-15.72562 20.68287,-10.07627 55.3311,-25.98617 36.76956,-1.59099 50.91168,-8.13173 35.00179,-1.94454 38.36054,0 23.86485,3.35875 9.36916,1.41422 23.86486,9.72271 32.52691,18.38478 34.825,18.03122 33.4108,15.73313 11.49048,-2.82843 -4.59619,-25.10229 -2.82843,-1.94454 -16.61701,-7.07107 -45.60838,-24.57196 -46.84582,-24.39518 -18.38478,-4.41942 -97.40395,-6.01041 -104.6518,14.49569 -64.34672,20.15254 -53.56333,34.64823 -93.51487,56.03821 -56.74532,33.58757 -17.32411,18.03123 -17.5009,32.88046 -13.43502,29.52171 -1.06066,18.03122 2.82842,18.03122 z"
       id="path3964-0"
       inkscape:connector-curvature="0" />
    <path
       style="display:inline;fill:#ff6a00;fill-opacity:1;stroke:#ff6a00;stroke-width:1px;stroke-linecap:butt;stroke-linejoin:miter;stroke-opacity:1"
       d="m 190.84306,416.11083 0.35355,-32.70369 2.47487,-9.01561 15.02602,-30.05203 8.30851,-15.55635 12.19759,-17.5009 4.06586,-3.88908 11.31371,-8.66206 16.61701,-10.07627 14.67246,-7.77818 38.7141,-22.80419 35.17856,-20.50609 39.4212,-21.03643 9.89949,-5.3033 34.47146,-21.92031 10.25305,-7.07107 34.1179,-15.37957 32.52691,-10.25305 47.19937,-4.77297 39.59798,-6.0104 56.03821,-0.88389 31.99658,1.94455 27.22361,2.82842 42.07285,17.14734 35.70889,21.03643 6.36396,4.24264 33.58758,15.73312 1.41421,0.88389 6.89429,0.7071 -1.41421,-2.47487 -32.52691,-49.14392 -18.208,-28.28427 -13.96536,-20.85965 -20.85965,-19.268659 -1.94454,-1.23743 -12.02082,0 -30.93592,-11.490489 -52.85623,-18.207999 -76.89786,1.944544 c 0,0 -46.84582,7.95495 -48.43681,7.95495 -1.59099,0 -46.84582,21.566754 -46.84582,21.566754 l 0,0 -66.46804,30.052039 -122.68302,64.70027 -54.44722,57.6292 -24.57196,25.27906 -17.32411,5.83363 -13.43503,26.33973 -4.94975,27.22361 0.17678,62.9325 z"
       id="path3967-6"
       inkscape:connector-curvature="0" />
    <path
       style="display:inline;fill:#808080;fill-opacity:1;stroke:#808080;stroke-width:1px;stroke-linecap:butt;stroke-linejoin:miter;stroke-opacity:1"
       d="m 195.0857,274.68948 23.33452,-3.71231 30.58237,-33.23402 27.75394,-30.22881 6.54073,-6.89429 22.09709,-15.55635 13.25825,-9.54594 24.74874,-13.96536 41.01219,-20.85965 27.22361,-13.25825 26.69328,-13.43503 20.50609,-10.6066 45.25484,-19.622209 26.33972,-12.37437 8.13173,-1.06066 8.13173,-1.237437 6.89429,-1.414213 11.31371,-1.414214 7.77817,-1.59099 26.69328,-1.414213 52.50268,-1.590991 26.87005,9.192388 41.89608,14.31891 18.03122,5.3033 13.25825,-1.23743 -20.50609,-18.208003 -11.84404,-11.136932 -73.5391,-25.102289 -9.36917,-1.237437 -46.49227,-0.53033 -22.27386,0.176777 -83.26182,20.152542 -82.73149,46.845821 -53.38656,27.57716 -63.81638,33.76435 -36.06245,35.53211 -10.3743,12.29238 -16.625,22.5 -20.25,31.25 z"
       id="path3970-5"
       inkscape:connector-curvature="0" />
    <path
       style="display:inline;fill:#2e3094;fill-opacity:1;stroke:#2e3094;stroke-width:1px;stroke-linecap:butt;stroke-linejoin:miter;stroke-opacity:1"
       d="m 240.64973,207.00189 18.5,-17.125 14.875,-12.625 20.375,-16.875 27.25,-13.375 39.12499,-20.99999 53.375,-28.749999 39.375,-19.500002 21.375,-13.25 12.25,-7.374999 46.625,-13 14.5,-3.375 24.74999,-4.749999 70.875,-1.625 -20.125,-5.375 -21.75,-5.125 -28.375,-3.875 -36.62499,-4.874999 -46.125,-1.875 -21.875,3 -23.25,4.999999 -18.625,7.125 -17.25,6.75 -34.875,20.874999 -7.125,6 -17,17.374999 -26.74999,29.375001 -43.25,47.87499 -16.75,18.875 -12.75,16 z"
       id="path3973-9"
       inkscape:connector-curvature="0" />
    <ellipse
       style="display:inline;fill:#ffffff;fill-opacity:1;stroke:#ffffff;stroke-width:1.08160949;stroke-linecap:round;stroke-linejoin:miter;stroke-opacity:1"
       id="path4121-3"
       cx="299.70477"
       cy="738.50189"
       rx="55.45919"
       ry="56.459194" />
    <ellipse
       style="display:inline;fill:#ffffff;fill-opacity:1;stroke:#ffffff;stroke-width:1.08160949;stroke-linecap:round;stroke-linejoin:miter;stroke-opacity:1"
       id="path4121-8-3"
       cx="414.70477"
       cy="831.00189"
       rx="55.45919"
       ry="56.459194" />
    <ellipse
       style="display:inline;fill:#ffffff;fill-opacity:1;stroke:#ffffff;stroke-width:1.08160949;stroke-linecap:round;stroke-linejoin:miter;stroke-opacity:1"
       id="path4121-2-3"
       cx="532.20477"
       cy="737.00189"
       rx="55.45919"
       ry="56.459194" />
    <ellipse
       style="display:inline;fill:#ffffff;fill-opacity:1;stroke:#ffffff;stroke-width:1.08160949;stroke-linecap:round;stroke-linejoin:miter;stroke-opacity:1"
       id="path4121-4-2"
       cx="643.70477"
       cy="828.50189"
       rx="55.45919"
       ry="56.459194" />
    <ellipse
       style="display:inline;fill:#ffffff;fill-opacity:1;stroke:#ffffff;stroke-width:1.08160949;stroke-linecap:round;stroke-linejoin:miter;stroke-opacity:1"
       id="path4121-5-2"
       cx="753.70477"
       cy="735.50189"
       rx="55.45919"
       ry="56.459194" />
    <ellipse
       style="display:inline;fill:#ffffff;fill-opacity:1;stroke:#ffffff;stroke-width:0.72955507;stroke-linecap:round;stroke-linejoin:miter;stroke-opacity:1"
       id="path4121-51-19"
       cx="699.45477"
       cy="938.50189"
       rx="38.88522"
       ry="36.63522" />
    <ellipse
       style="display:inline;fill:#ffffff;fill-opacity:1;stroke:#ffffff;stroke-width:0.72955507;stroke-linecap:round;stroke-linejoin:miter;stroke-opacity:1"
       id="path4121-51-7-6"
       cx="586.70477"
       cy="939.00189"
       rx="38.88522"
       ry="36.63522" />
    <ellipse
       style="display:inline;fill:#ffffff;fill-opacity:1;stroke:#ffffff;stroke-width:0.72955507;stroke-linecap:round;stroke-linejoin:miter;stroke-opacity:1"
       id="path4121-51-1-6"
       cx="474.70477"
       cy="940.00189"
       rx="38.88522"
       ry="36.63522" />
    <ellipse
       style="display:inline;fill:#ffffff;fill-opacity:1;stroke:#ffffff;stroke-width:0.72955507;stroke-linecap:round;stroke-linejoin:miter;stroke-opacity:1"
       id="path4121-51-15-4"
       cx="360.70477"
       cy="940.00189"
       rx="38.88522"
       ry="36.63522" />
    <g
       transform="translate(-9.975256,-18.498149)"
       style="font-style:normal;font-variant:normal;font-weight:normal;font-stretch:normal;font-size:150px;line-height:125%;font-family:GearBox;-inkscape-font-specification:GearBox;letter-spacing:0px;word-spacing:0px;display:inline;fill:#2e3094;fill-opacity:1;stroke:none"
       id="text4018-6">
      <path
         d="m 375.18264,762.94026 12.6,-1.65 0,-10.65 -13.35,-1.8 q -0.6,-5.25 -2.1,-10.5 l 0.75,-0.15 10.95,-6.45 -4.2,-9.9 -12.9,3.6 q -2.55,-4.5 -5.7,-8.55 l 0.45,-0.45 7.65,-10.05 -7.65,-7.65 -10.5,8.25 q -4.05,-3.3 -8.55,-5.85 l 0.15,-0.45 3.3,-12.15 -9.9,-4.2 -6.6,11.55 q -4.95,-1.5 -10.2,-2.1 l 0,-0.3 -1.65,-12.6 -10.65,0 -1.65,12.9 q -5.1,0.6 -10.05,1.95 l -6.45,-11.1 -9.9,4.05 3.45,12.3 q -4.65,2.55 -8.85,5.85 l -10.2,-7.8 -7.5,7.65 7.8,10.05 q -3.45,4.2 -6,8.85 l -12.15,-3.3 -4.2,9.9 10.95,6.3 q -1.5,5.25 -2.1,10.5 l -12.45,1.65 0,10.65 12.45,1.65 q 0.6,5.1 2.1,10.05 l -11.1,6.3 4.2,9.9 12.15,-3.3 q 2.55,4.65 5.85,8.85 l -7.8,10.05 7.65,7.65 10.05,-7.8 q 4.2,3.3 8.85,6 l -3.45,12.3 9.9,4.2 6.45,-11.25 q 5.1,1.5 10.35,2.1 l 1.65,12.9 10.65,0 1.65,-12.9 q 5.4,-0.6 10.65,-2.1 l 0.15,0.45 6.3,10.95 9.9,-4.2 -3.45,-12.6 q 4.5,-2.55 8.55,-5.85 l 0.45,0.45 10.05,7.65 7.65,-7.5 -8.25,-10.65 q 3.3,-4.05 5.7,-8.55 l 0.75,0.3 12.15,3.3 4.05,-9.9 -11.55,-6.6 q 1.35,-5.1 1.95,-10.2 l 0.75,0 z m -87.9,29.85 q 0,2.4 -1.8,4.2 -1.65,1.65 -4.05,1.65 -2.4,0 -4.2,-1.65 -1.65,-1.8 -1.65,-4.2 l 0,-49.2 q 0,-2.4 1.65,-4.05 1.8,-1.8 4.2,-1.8 2.4,0 4.05,1.8 1.8,1.65 1.8,4.05 l 0,49.2 z m 37.95,-30.9 -20.4,0 q -2.4,0 -4.2,-1.65 -1.65,-1.8 -1.65,-4.2 0,-2.4 1.65,-4.05 1.8,-1.8 4.2,-1.8 l 20.4,0 q 6,0 10.2,-4.2 4.35,-4.35 4.35,-10.35 0,-4.5 -2.1,-7.5 -1.2,-1.65 -5.4,-5.4 -9.3,-5.55 -19.95,-5.55 -15.9,0 -27.3,11.4 -1.65,1.65 -4.05,1.65 -2.4,0 -4.2,-1.65 -1.65,-1.8 -1.65,-4.2 0,-2.4 1.65,-4.05 14.7,-14.7 35.55,-14.7 6.45,0 14.4,2.1 9.3,2.4 12.9,6 l 0.3,0.15 q 11.4,7.95 11.4,21.75 0,10.8 -7.65,18.6 -7.65,7.65 -18.45,7.65 z"
         id="path4486-1"
         inkscape:connector-curvature="0" />
    </g>
    <g
       transform="translate(-9.975256,-18.498149)"
       style="font-style:normal;font-variant:normal;font-weight:normal;font-stretch:normal;font-size:150px;line-height:125%;font-family:GearBox;-inkscape-font-specification:GearBox;letter-spacing:0px;word-spacing:0px;display:inline;fill:#2e3094;fill-opacity:1;stroke:none"
       id="text4022-2">
      <path
         d="m 501.74814,854.92833 0,-10.65 -12.9,-1.65 q -0.6,-5.4 -2.1,-10.5 l 0.45,-0.3 10.95,-6.3 -4.2,-9.9 -12.6,3.45 q -2.55,-4.5 -5.85,-8.55 l 0.45,-0.45 7.65,-10.05 -7.5,-7.65 -10.65,8.25 q -4.05,-3.3 -8.55,-5.7 l 0.3,-0.75 3.3,-12.15 -9.9,-4.05 -6.75,11.55 q -4.95,-1.35 -10.05,-1.95 l 0,-0.75 -1.65,-12.6 -10.65,0 -1.8,13.35 q -5.25,0.6 -10.5,2.1 l -0.15,-0.75 -6.45,-10.95 -9.9,4.2 3.6,12.9 q -4.5,2.55 -8.55,5.7 l -0.45,-0.45 -10.05,-7.65 -7.65,7.65 8.25,10.5 q -3.3,4.05 -5.85,8.55 l -0.45,-0.15 -12.15,-3.3 -4.2,9.9 11.55,6.6 q -1.5,4.95 -2.1,10.2 l -0.3,0 -12.6,1.65 0,10.65 12.9,1.65 q 0.6,5.1 1.95,10.05 l -11.1,6.45 4.05,9.9 12.3,-3.45 q 2.55,4.65 5.85,8.85 l -7.8,10.2 7.65,7.5 10.05,-7.8 q 4.2,3.45 8.85,6 l -3.3,12.15 9.9,4.2 6.3,-10.95 q 5.1,1.5 10.5,2.1 l 1.65,12.45 10.65,0 1.65,-12.45 q 5.1,-0.6 10.05,-2.1 l 6.3,11.1 9.9,-4.2 -3.3,-12.15 q 4.65,-2.55 8.85,-5.85 l 10.05,7.8 7.65,-7.65 -7.8,-10.05 q 3.3,-4.2 6,-8.85 l 12.3,3.45 4.2,-9.9 -11.25,-6.45 q 1.5,-5.1 2.1,-10.35 l 12.9,-1.65 z m -54.6,13.35 -40.35,0 q -2.4,0 -4.2,-1.65 -1.65,-1.65 -1.65,-4.2 0,-2.4 1.65,-4.05 1.8,-1.65 4.2,-1.65 l 40.35,0 q 2.4,0 4.05,1.65 1.8,1.65 1.8,4.05 0,2.55 -1.8,4.2 -1.65,1.65 -4.05,1.65 z m 15.3,16.8 q -1.65,1.8 -4.2,1.8 -2.4,0 -4.05,-1.65 -1.65,-1.8 -1.65,-4.2 0,-2.4 1.65,-4.2 11.25,-11.25 11.25,-27.15 0,-16.05 -11.4,-27.3 -11.25,-11.4 -27.3,-11.4 -16.05,0 -27.45,11.4 -11.25,11.25 -11.25,27.3 0,15.9 11.4,27.3 1.65,1.65 1.65,4.05 0,2.4 -1.8,4.2 -1.65,1.65 -4.05,1.65 -2.4,0 -4.05,-1.65 -14.7,-14.7 -14.7,-35.55 0,-20.85 14.7,-35.55 14.7,-14.85 35.55,-14.85 20.85,0 35.55,14.85 14.7,14.7 14.7,35.55 0,20.7 -14.55,35.4 z"
         id="path4483-9"
         inkscape:connector-curvature="0" />
    </g>
    <g
       transform="translate(-9.975256,-18.498149)"
       style="font-style:normal;font-variant:normal;font-weight:normal;font-stretch:normal;font-size:150px;line-height:125%;font-family:GearBox;-inkscape-font-specification:GearBox;letter-spacing:0px;word-spacing:0px;display:inline;fill:#2e3094;fill-opacity:1;stroke:none"
       id="text4026-4">
      <path
         d="m 602.99232,762.94026 12.6,-1.65 0,-10.65 -13.35,-1.8 q -0.6,-5.25 -2.1,-10.5 l 0.75,-0.15 10.95,-6.45 -4.2,-9.9 -12.9,3.6 q -2.55,-4.5 -5.7,-8.55 l 0.45,-0.45 7.65,-10.05 -7.65,-7.65 -10.5,8.25 q -4.05,-3.3 -8.55,-5.85 l 0.15,-0.45 3.3,-12.15 -9.9,-4.2 -6.6,11.55 q -4.95,-1.5 -10.2,-2.1 l 0,-0.3 -1.65,-12.6 -10.65,0 -1.8,12.9 q -4.95,0.6 -9.9,1.95 l -6.45,-11.1 -9.9,4.05 3.45,12.3 q -4.65,2.55 -8.85,5.85 l -10.2,-7.8 -7.5,7.65 7.8,10.05 q -3.45,4.2 -6,8.85 l -12.15,-3.3 -4.2,9.9 10.95,6.3 q -1.5,5.25 -2.1,10.5 l -12.45,1.65 0,10.65 12.45,1.65 q 0.6,5.1 2.1,10.05 l -11.1,6.3 4.2,9.9 12.15,-3.3 q 2.55,4.65 5.85,8.85 l -7.8,10.05 7.65,7.65 10.05,-7.8 q 4.2,3.3 8.85,6 l -3.45,12.3 9.9,4.2 6.45,-11.25 q 5.1,1.5 10.35,2.1 l 1.65,12.9 10.65,0 1.65,-12.9 q 5.4,-0.6 10.5,-2.1 l 0.3,0.45 6.3,10.95 9.9,-4.2 -3.45,-12.6 q 4.5,-2.55 8.55,-5.85 l 0.45,0.45 10.05,7.65 7.65,-7.5 -8.25,-10.65 q 3.3,-4.05 5.7,-8.55 l 0.75,0.3 12.15,3.3 4.05,-9.9 -11.55,-6.6 q 1.5,-5.1 1.95,-10.2 l 0.75,0 z m -87.9,29.85 q 0,2.4 -1.8,4.2 -1.65,1.65 -4.05,1.65 -2.4,0 -4.2,-1.65 -1.65,-1.8 -1.65,-4.2 l 0,-49.2 q 0,-2.4 1.65,-4.05 1.8,-1.8 4.2,-1.8 2.4,0 4.05,1.8 1.8,1.65 1.8,4.05 l 0,49.2 z m 55.5,-3.45 q 1.5,1.65 1.5,3.9 0,2.4 -1.8,4.05 -1.65,1.65 -4.05,1.65 -2.7,0 -4.35,-1.8 l -33.6,-37.2 q -1.5,-1.65 -1.5,-3.9 0,-2.4 1.65,-4.05 1.8,-1.8 4.2,-1.8 l 20.4,0 q 6,0 10.2,-4.2 4.35,-4.35 4.35,-10.35 0,-4.65 -2.1,-7.5 -1.05,-1.35 -5.4,-5.4 -9.3,-5.55 -19.95,-5.55 -15.9,0 -27.3,11.4 -1.65,1.65 -4.05,1.65 -2.4,0 -4.2,-1.65 -1.65,-1.8 -1.65,-4.2 0,-2.4 1.65,-4.05 14.7,-14.7 35.55,-14.7 6.45,0 14.4,2.1 9.15,2.4 12.9,6 l 0.3,0.15 q 11.4,7.95 11.4,21.75 0,10.8 -7.65,18.6 -7.65,7.65 -18.45,7.65 l -7.35,0 24.9,27.45 z"
         id="path4480-3"
         inkscape:connector-curvature="0" />
    </g>
    <g
       transform="translate(-9.975256,-18.498149)"
       style="font-style:normal;font-variant:normal;font-weight:normal;font-stretch:normal;font-size:150px;line-height:125%;font-family:GearBox;-inkscape-font-specification:GearBox;letter-spacing:0px;word-spacing:0px;display:inline;fill:#2e3094;fill-opacity:1;stroke:none"
       id="text4030-5">
      <path
         d="m 727.31519,854.80699 0,-10.65 -12.9,-1.65 q -0.6,-5.4 -2.1,-10.65 l 0.45,-0.15 10.95,-6.3 -4.2,-9.9 -12.6,3.45 q -2.55,-4.5 -5.85,-8.55 l 0.45,-0.45 7.65,-10.05 -7.5,-7.65 -10.65,8.25 q -4.05,-3.3 -8.55,-5.7 l 0.3,-0.75 3.3,-12.15 -9.9,-4.05 -6.75,11.55 q -4.95,-1.35 -10.05,-1.95 l 0,-0.75 -1.65,-12.6 -10.65,0 -1.8,13.35 q -5.25,0.6 -10.5,2.1 l -0.15,-0.75 -6.45,-10.95 -9.9,4.2 3.6,12.9 q -4.5,2.55 -8.55,5.7 l -0.45,-0.45 -10.05,-7.65 -7.65,7.65 8.25,10.5 q -3.3,4.05 -5.85,8.55 l -0.45,-0.15 -12.15,-3.3 -4.2,9.9 11.55,6.6 q -1.5,4.95 -2.1,10.2 l -0.3,0 -12.6,1.65 0,10.65 12.9,1.65 q 0.6,5.1 1.95,10.05 l -11.1,6.45 4.05,9.9 12.3,-3.45 q 2.55,4.65 5.85,8.85 l -7.8,10.2 7.65,7.5 10.05,-7.8 q 4.2,3.45 8.85,6 l -3.3,12.15 9.9,4.2 6.3,-10.95 q 5.1,1.5 10.5,2.1 l 1.65,12.45 10.65,0 1.65,-12.45 q 5.1,-0.6 10.05,-2.1 l 6.3,11.1 9.9,-4.2 -3.3,-12.15 q 4.65,-2.55 8.85,-5.85 l 10.05,7.8 7.65,-7.65 -7.8,-10.05 q 3.3,-4.2 6,-8.85 l 12.3,3.45 4.2,-9.9 -11.25,-6.45 q 1.5,-5.1 2.1,-10.35 l 12.9,-1.65 z m -43.8,-31.2 q -2.4,0 -4.2,-1.8 -9.3,-9.3 -22.5,-10.8 l 0,83.1 q 0,2.4 -1.65,4.05 -1.65,1.8 -4.05,1.8 -2.55,0 -4.2,-1.8 -1.65,-1.65 -1.65,-4.05 l 0,-82.8 q -11.85,2.1 -20.4,10.65 -1.8,1.8 -4.2,1.8 -2.4,0 -4.2,-1.65 -1.65,-1.8 -1.65,-4.2 0,-2.4 1.8,-4.2 14.7,-14.7 35.55,-14.7 20.7,0 35.4,14.55 1.65,1.65 1.65,4.2 0,2.4 -1.65,4.2 -1.65,1.65 -4.05,1.65 z"
         id="path4477-7"
         inkscape:connector-curvature="0" />
    </g>
    <g
       transform="translate(-9.975256,-18.498149)"
       style="font-style:normal;font-variant:normal;font-weight:normal;font-stretch:normal;font-size:150px;line-height:125%;font-family:GearBox;-inkscape-font-specification:GearBox;letter-spacing:0px;word-spacing:0px;display:inline;fill:#2e3094;fill-opacity:1;stroke:none"
       id="text4034-7">
      <path
         d="m 840.33093,761.29026 0,-10.65 -12.45,-1.65 q -0.6,-5.25 -2.1,-10.5 l 10.95,-6.3 -4.2,-9.9 -12.15,3.3 q -2.55,-4.65 -6,-8.85 l 7.8,-10.05 -7.5,-7.65 -10.2,7.8 q -4.2,-3.3 -8.85,-5.85 l 3.45,-12.3 -9.9,-4.05 -6.45,11.1 q -4.95,-1.35 -10.05,-1.95 l 0,-0.3 -1.65,-12.6 -10.65,0 -1.65,12.9 q -5.25,0.6 -10.2,2.1 l -0.3,-0.6 -6.3,-10.95 -9.9,4.2 3.45,12.6 q -4.5,2.55 -8.55,5.85 l -0.45,-0.45 -10.05,-7.8 -7.65,7.65 8.1,10.5 q -3.15,4.05 -5.7,8.55 l -0.75,-0.3 -12.15,-3.3 -4.2,9.9 11.7,6.6 q -1.5,5.25 -2.1,10.5 l -0.75,0 -12.6,1.8 0,10.65 13.35,1.65 q 0.6,5.1 1.95,10.2 l -0.6,0.15 -10.95,6.45 4.05,9.9 12.9,-3.6 q 2.4,4.5 5.7,8.55 l -0.45,0.6 -7.8,10.05 7.65,7.5 10.5,-8.1 q 4.05,3.3 8.55,5.85 l -0.15,0.45 -3.3,12.15 9.9,4.2 6.45,-11.4 q 5.25,1.5 10.65,2.1 l 1.65,12.9 10.65,0 1.65,-12.9 q 5.25,-0.6 10.35,-2.1 l 6.45,11.25 9.9,-4.2 -3.45,-12.3 q 4.65,-2.7 8.85,-6 l 10.05,7.8 7.65,-7.65 -7.8,-10.05 q 3.3,-4.2 5.85,-8.85 l 12.15,3.3 4.2,-9.9 -11.1,-6.3 q 1.5,-4.95 2.1,-10.05 l 12.45,-1.65 z m -47.85,36.6 -0.3,0.15 q -3.6,3.6 -12.9,6 -7.95,2.1 -14.4,2.1 -20.85,0 -35.55,-14.7 -1.65,-1.65 -1.65,-4.05 0,-2.4 1.65,-4.05 1.8,-1.8 4.2,-1.8 2.4,0 4.05,1.65 11.4,11.4 27.3,11.4 11.1,0 20.55,-6.15 6.9,-4.2 6.9,-12.3 0,-6 -4.35,-10.2 -4.2,-4.35 -10.2,-4.35 l -2.7,0 q -1.05,0.3 -1.8,0.3 l -20.4,0 q -10.8,0 -18.45,-7.65 -7.65,-7.8 -7.65,-18.6 0,-13.8 11.4,-21.75 l 0.3,-0.15 q 3.6,-3.6 12.9,-6 7.95,-2.1 14.4,-2.1 20.85,0 35.55,14.7 1.65,1.65 1.65,4.05 0,2.4 -1.8,4.2 -1.65,1.65 -4.05,1.65 -2.4,0 -4.05,-1.65 -11.4,-11.4 -27.3,-11.4 -11.1,0 -20.55,6.15 -6.9,4.2 -6.9,12.3 0,6 4.2,10.35 4.35,4.2 10.35,4.2 l 2.7,0 q 1.05,-0.3 1.8,-0.3 l 20.4,0 q 10.8,0 18.45,7.8 7.65,7.65 7.65,18.45 0,13.8 -11.4,21.75 z"
         id="path4474-2"
         inkscape:connector-curvature="0" />
    </g>
    <g
       transform="translate(-9.975256,-18.498149)"
       style="font-style:normal;font-variant:normal;font-weight:normal;font-stretch:normal;font-size:100px;line-height:125%;font-family:GearBox;-inkscape-font-specification:GearBox;letter-spacing:0px;word-spacing:0px;fill:#000000;fill-opacity:1;stroke:none"
       id="text4039-6">
      <path
         d="m 411.52834,962.76647 8.4,-1.1 0,-7.1 -8.9,-1.2 q -0.4,-3.5 -1.4,-7 l 0.5,-0.1 7.3,-4.3 -2.8,-6.6 -8.6,2.4 q -1.7,-3 -3.8,-5.7 l 0.3,-0.3 5.1,-6.7 -5.1,-5.1 -7,5.5 q -2.7,-2.2 -5.7,-3.9 l 0.1,-0.3 2.2,-8.1 -6.6,-2.8 -4.4,7.7 q -3.3,-1 -6.8,-1.4 l 0,-0.2 -1.1,-8.4 -7.1,0 -1.1,8.6 q -3.4,0.4 -6.7,1.3 l -4.3,-7.4 -6.6,2.7 2.3,8.2 q -3.1,1.7 -5.9,3.9 l -6.8,-5.2 -5,5.1 5.2,6.7 q -2.3,2.8 -4,5.9 l -8.1,-2.2 -2.8,6.6 7.3,4.2 q -1,3.5 -1.4,7 l -8.3,1.1 0,7.1 8.3,1.1 q 0.4,3.4 1.4,6.7 l -7.4,4.2 2.8,6.6 8.1,-2.2 q 1.7,3.1 3.9,5.9 l -5.2,6.7 5.1,5.1 6.7,-5.2 q 2.8,2.2 5.9,4 l -2.3,8.20003 6.6,2.8 4.3,-7.50003 q 3.4,1 6.9,1.4 l 1.1,8.60003 7.1,0 1.1,-8.60003 q 3.6,-0.4 7,-1.4 l 0.2,0.3 4.2,7.30003 6.6,-2.8 -2.3,-8.40003 q 3,-1.7 5.7,-3.9 l 0.3,0.3 6.7,5.1 5.1,-5 -5.5,-7.1 q 2.2,-2.7 3.8,-5.7 l 0.5,0.2 8.1,2.2 2.7,-6.6 -7.7,-4.4 q 0.9,-3.4 1.3,-6.8 l 0.5,0 z m -15.9,8.9 q 0,8.9 -7.1,14.1 l -0.7,0.5 q -7.9,5.3 -18.2,5.3 -13.8,0 -23.6,-9.7 -1.2,-1.1 -1.2,-2.8 0,-1.6 1.1,-2.7 1.2,-1.1 2.8,-1.1 1.6,0 2.8,1.1 7.5,7.5 18.1,7.5 8.3,0 13.8,-4 0.1,-0.1 0.5,-0.4 4,-2.9 4,-7.8 0,-3.9 -2.7,-6.7 -2.7,-2.8 -6.5,-3 -0.1,0 -0.3,0.1 -0.2,0 -0.2,0 -1.7,0 -2.8,-1.1 -1.1,-1.2 -1.1,-2.8 l 0,-0.1 q 0,-1.6 1.1,-2.7 1.1,-1.2 2.8,-1.2 0,0 0.2,0 0.2,0 0.3,0.1 3.8,-0.3 6.5,-3 2.7,-2.8 2.7,-6.7 0,-3 -1.4,-5 -0.7,-1 -3.6,-3.6 -6.2,-3.7 -13.3,-3.7 -10.6,0 -18.2,7.6 -1.1,1.1 -2.7,1.1 -1.6,0 -2.8,-1.1 -1.1,-1.2 -1.1,-2.8 0,-1.6 1.1,-2.7 9.8,-9.8 23.7,-9.8 4.3,0 9.6,1.4 6.2,1.6 8.6,4 l 0.2,0.1 q 7.6,5.3 7.6,14.5 0,8.2 -6.5,13.5 6.5,5.3 6.5,13.6 z"
         id="path4471-6"
         inkscape:connector-curvature="0" />
    </g>
    <g
       transform="translate(-9.975256,-18.498149)"
       style="font-style:normal;font-variant:normal;font-weight:normal;font-stretch:normal;font-size:100px;line-height:125%;font-family:GearBox;-inkscape-font-specification:GearBox;letter-spacing:0px;word-spacing:0px;fill:#000000;fill-opacity:1;stroke:none"
       id="text4043-3">
      <path
         d="m 532.93005,961.55 0,-7.1 -8.6,-1.1 q -0.4,-3.6 -1.4,-7 l 0.3,-0.2 7.3,-4.2 -2.8,-6.6 -8.4,2.3 q -1.7,-3 -3.9,-5.7 l 0.3,-0.3 5.1,-6.7 -5,-5.1 -7.1,5.5 q -2.7,-2.2 -5.7,-3.8 l 0.2,-0.5 2.2,-8.1 -6.6,-2.7 -4.5,7.7 q -3.3,-0.9 -6.7,-1.3 l 0,-0.5 -1.1,-8.4 -7.1,0 -1.2,8.9 q -3.5,0.4 -7,1.4 l -0.1,-0.5 -4.3,-7.3 -6.6,2.8 2.4,8.6 q -3,1.7 -5.7,3.8 l -0.3,-0.3 -6.7,-5.1 -5.1,5.1 5.5,7 q -2.2,2.7 -3.9,5.7 l -0.3,-0.1 -8.1,-2.2 -2.8,6.6 7.7,4.4 q -1,3.3 -1.4,6.8 l -0.2,0 -8.4,1.1 0,7.1 8.6,1.1 q 0.4,3.4 1.3,6.7 l -7.4,4.3 2.7,6.6 8.2,-2.3 q 1.7,3.1 3.9,5.9 l -5.2,6.8 5.1,5 6.7,-5.2 q 2.8,2.3 5.9,4 l -2.2,8.1 6.6,2.8 4.2,-7.3 q 3.4,1 7,1.4 l 1.1,8.3 7.1,0 1.1,-8.3 q 3.4,-0.4 6.7,-1.4 l 4.2,7.4 6.6,-2.8 -2.2,-8.1 q 3.1,-1.7 5.9,-3.9 l 6.7,5.2 5.1,-5.1 -5.2,-6.7 q 2.2,-2.8 4,-5.9 l 8.2,2.3 2.8,-6.6 -7.5,-4.3 q 1,-3.4 1.4,-6.9 l 8.6,-1.1 z m -20.3,0.3 -16.5,0 0,26.8 q 0,1.6 -1.2,2.7 -1.1,1.2 -2.7,1.2 -1.6,0 -2.8,-1.2 -1.1,-1.1 -1.1,-2.7 l 0,-26.8 -35.1,0 q -1.6,0 -2.7,-1.1 -1.1,-1.1 -1.1,-2.7 0,-13.9 9.8,-23.7 9.8,-9.9 23.7,-9.9 9,0 16.7,4.4 1.9,1.2 1.9,3.4 0,1.6 -1.1,2.8 -1.1,1.1 -2.8,1.1 -1,0 -1.9,-0.5 -5.9,-3.4 -12.8,-3.4 -9.6,0 -16.8,6.3 -7.2,6.2 -8.7,15.6 l 30.9,0 0,-9.8 q 0,-1.6 1.1,-2.7 1.2,-1.2 2.8,-1.2 1.6,0 2.7,1.2 1.2,1.1 1.2,2.7 l 0,9.8 16.5,0 q 1.6,0 2.7,1.2 1.2,1.1 1.2,2.7 0,1.6 -1.2,2.7 -1.1,1.1 -2.7,1.1 z"
         id="path4468-4"
         inkscape:connector-curvature="0" />
    </g>
    <g
       transform="translate(-9.975256,-18.498149)"
       style="font-style:normal;font-variant:normal;font-weight:normal;font-stretch:normal;font-size:100px;line-height:125%;font-family:GearBox;-inkscape-font-specification:GearBox;letter-spacing:0px;word-spacing:0px;fill:#000000;fill-opacity:1;stroke:none"
       id="text4047-2">
      <path
         d="m 638.03005,962.65 8.4,-1.1 0,-7.1 -8.6,-1.1 q -0.4,-3.4 -1.3,-6.7 l 7.4,-4.3 -2.7,-6.6 -8.2,2.3 q -1.7,-3.1 -3.9,-5.9 l 5.2,-6.8 -5.1,-5 -6.7,5.2 q -2.8,-2.3 -5.9,-4 l 2.2,-8.1 -6.6,-2.8 -4.2,7.3 q -3.4,-1 -7,-1.4 l -1.1,-8.3 -7.1,0 -1.1,8.3 q -3.4,0.4 -6.7,1.4 l -4.2,-7.4 -6.6,2.8 2.2,8.1 q -3.1,1.7 -5.9,3.9 l -6.7,-5.2 -5.1,5.1 5.2,6.7 q -2.2,2.8 -4,5.9 l -8.2,-2.3 -2.8,6.6 7.5,4.3 q -1,3.4 -1.4,6.9 l -8.6,1.1 0,7.1 8.6,1.1 q 0.4,3.6 1.4,7.1 l -0.3,0.1 -7.3,4.2 2.8,6.6 8.4,-2.3 q 1.7,3 3.9,5.7 l -0.3,0.3 -5.1,6.7 5,5.1 7.1,-5.5 q 2.7,2.2 5.7,3.8 l -0.2,0.5 -2.2,8.1 6.6,2.7 4.4,-7.7 q 3.4,0.9 6.8,1.3 l 0,0.5 1.1,8.4 7.1,0 1.2,-8.9 q 3.5,-0.4 7,-1.4 l 0.1,0.5 4.3,7.3 6.6,-2.8 -2.4,-8.6 q 3,-1.7 5.7,-3.8 l 0.3,0.3 6.7,5.1 5.1,-5.1 -5.5,-7 q 2.2,-2.7 3.9,-5.7 l 0.3,0.1 8.1,2.2 2.8,-6.6 -7.7,-4.4 q 1,-3.3 1.4,-6.8 l 0.2,0 z m -41.6,28.9 q -1.6,0 -2.8,-1.2 -1.1,-1.1 -1.1,-2.7 0,-1.6 1.1,-2.7 1.2,-1.2 2.8,-1.2 10.7,0 18.2,-7.5 7.6,-7.6 7.6,-18.3 0,-10.6 -7.6,-18.1 -7.5,-7.6 -18.2,-7.6 -9.6,0 -16.8,6.3 -7.2,6.2 -8.6,15.6 l 37.8,0 q 1.6,0 2.7,1.1 1.1,1.1 1.1,2.7 0,1.6 -1.1,2.8 -1.1,1.1 -2.7,1.1 l -42.1,0 q -1.6,0 -2.7,-1.1 -1.1,-1.2 -1.1,-2.8 0,-13.8 9.8,-23.6 9.8,-9.9 23.7,-9.9 13.9,0 23.7,9.9 9.8,9.8 9.8,23.6 0,13.9 -9.8,23.8 -9.8,9.8 -23.7,9.8 z"
         id="path4465-0"
         inkscape:connector-curvature="0" />
    </g>
    <g
       transform="translate(-9.975256,-18.498149)"
       style="font-style:normal;font-variant:normal;font-weight:normal;font-stretch:normal;font-size:100px;line-height:125%;font-family:GearBox;-inkscape-font-specification:GearBox;letter-spacing:0px;word-spacing:0px;fill:#000000;fill-opacity:1;stroke:none"
       id="text4051-1">
      <path
         d="m 758.93005,961.25 0,-7.1 -8.3,-1.1 q -0.4,-3.4 -1.4,-6.7 l 7.4,-4.2 -2.8,-6.6 -8.1,2.2 q -1.7,-3.1 -3.9,-5.9 l 5.2,-6.7 -5.1,-5.1 -6.7,5.2 q -2.8,-2.2 -5.9,-4 l 2.3,-8.2 -6.6,-2.8 -4.3,7.5 q -3.4,-1 -6.9,-1.4 l -1.1,-8.6 -7.1,0 -1.1,8.6 q -3.6,0.4 -7.1,1.4 l -0.1,-0.3 -4.2,-7.3 -6.6,2.8 2.3,8.4 q -3,1.7 -5.7,3.9 l -0.3,-0.3 -6.7,-5.1 -5.1,5 5.5,7.1 q -2.2,2.7 -3.8,5.7 l -0.5,-0.2 -8.1,-2.2 -2.7,6.6 7.7,4.5 q -0.9,3.3 -1.3,6.7 l -0.5,0 -8.4,1.1 0,7.1 8.9,1.2 q 0.4,3.5 1.4,7 l -0.5,0.1 -7.3,4.3 2.8,6.6 8.6,-2.4 q 1.7,3 3.8,5.7 l -0.3,0.3 -5.1,6.7 5.1,5.1 7,-5.5 q 2.7,2.2 5.7,3.9 l -0.1,0.3 -2.2,8.1 6.6,2.8 4.4,-7.7 q 3.3,1 6.8,1.4 l 0,0.2 1.1,8.4 7.1,0 1.1,-8.6 q 3.4,-0.4 6.7,-1.3 l 4.3,7.4 6.6,-2.7 -2.3,-8.2 q 3.1,-1.7 5.9,-3.9 l 6.8,5.2 5,-5.1 -5.2,-6.7 q 2.3,-2.8 4,-5.9 l 8.1,2.2 2.8,-6.6 -7.3,-4.2 q 1,-3.5 1.4,-7 l 8.3,-1.1 z m -26.1,-21.8 -35.1,35.5 31.2,0 q 1.6,0 2.7,1.1 1.2,1.1 1.2,2.7 0,1.6 -1.2,2.8 -1.1,1.1 -2.7,1.1 l -40.6,0.1 q -1.6,0 -2.8,-1.1 -1.1,-1.2 -1.1,-2.8 0,-1.6 1.2,-2.7 l 38.8,-39.2 q -6.8,-5 -15.2,-5 -10.8,0 -18.4,7.7 -1.2,1.2 -2.8,1.2 -1.6,0 -2.8,-1.1 -1.1,-1.2 -1.1,-2.8 0,-1.6 1.1,-2.7 9.9,-10 24,-10 13.8,0 23.6,9.7 1.2,1.1 1.2,2.8 0,1.6 -1.2,2.7 z"
         id="path4462-9"
         inkscape:connector-curvature="0" />
    </g>
    <path
       style="display:inline;fill:#ff6a00;fill-opacity:1;stroke:#ff6a00;stroke-width:1px;stroke-linecap:butt;stroke-linejoin:miter;stroke-opacity:1"
       d="m 390.20477,720.06437 4.125,4 -3.0625,10 5.9375,4.3125 7.25,-8.25 6.75,1.9375 1,10.1875 9.0625,-0.1875 0.875,-9.8125 6.6875,-2.3125 7.25,8.5 6.5,-4.375 -3.4375,-9.4375 4.8125,-5.375 9.0625,3.9375 4.5625,-6.0625 -8.1875,-7.4375 1.8125,-6.375 10.25,-2 -0.0625,-8.125 -10.375,-1.8125 -1.625,-5.75 8.0625,-7.5625 -3.8125,-6.375 -9.25,3.8125 -5.25,-4.75 3.5625,-9.5 -6.3125,-4.625 -7.3125,8.3125 -6.6875,-1.8125 -1.25,-10.125 -8.75,-0.125 -1.1875,10.3125 -6.4375,2 -7.25,-8.625 -6.5,4.25 3.625,9 -4.5,5.5625 -9.625,-3.375 -4.4375,6.1875 7.9375,6.9375 -1.8125,7.125 -10.0625,0.875 0.1875,8.875 9.8125,1.0625 1.875,6.5625 -8,6.75 3.8125,7.1875 z"
       id="path4056-7"
       inkscape:connector-curvature="0" />
    <ellipse
       ry="26.068581"
       rx="26.167181"
       style="display:inline;fill:#808080;fill-opacity:1;stroke:#808080;stroke-width:0.92340499;stroke-linecap:round;stroke-linejoin:miter;stroke-opacity:1"
       id="path4068-9"
       cx="416.5867"
       cy="697.32172" />
    <path
       style="display:inline;fill:#ff6a00;fill-opacity:1;stroke:#ff6a00;stroke-width:1px;stroke-linecap:butt;stroke-linejoin:miter;stroke-opacity:1"
       d="m 616.35848,719.99616 4.125,4 -3.0625,10 5.9375,4.3125 7.25,-8.25 6.75,1.9375 1,10.1875 9.0625,-0.1875 0.875,-9.8125 6.6875,-2.3125 7.25,8.5 6.5,-4.375 -3.4375,-9.4375 4.8125,-5.375 9.0625,3.9375 4.5625,-6.0625 -8.1875,-7.4375 1.8125,-6.375 10.25,-2 -0.0625,-8.125 -10.375,-1.8125 -1.625,-5.75 8.0625,-7.5625 -3.8125,-6.375 -9.25,3.8125 -5.25,-4.75 3.5625,-9.5 -6.3125,-4.625 -7.3125,8.3125 -6.6875,-1.8125 -1.25,-10.125 -8.75,-0.125 -1.1875,10.3125 -6.4375,2 -7.25,-8.625 -6.5,4.25 3.625,9 -4.5,5.5625 -9.625,-3.375 -4.4375,6.1875 7.9375,6.9375 -1.8125,7.125 -10.0625,0.875 0.1875,8.875 9.8125,1.0625 1.875,6.5625 -8,6.75 3.8125,7.1875 z"
       id="path4056-4-9"
       inkscape:connector-curvature="0" />
    <ellipse
       ry="26.068581"
       rx="26.167181"
       style="display:inline;fill:#808080;fill-opacity:1;stroke:#808080;stroke-width:0.92340499;stroke-linecap:round;stroke-linejoin:miter;stroke-opacity:1"
       id="path4068-8-2"
       cx="642.74042"
       cy="697.25348" />
    <g
       transform="translate(-9.975256,-18.498149)"
       style="font-style:normal;font-variant:normal;font-weight:normal;font-stretch:normal;font-size:65px;line-height:125%;font-family:Stencil;-inkscape-font-specification:Stencil;letter-spacing:0px;word-spacing:0px;fill:#000000;fill-opacity:1;stroke:none"
       id="text4112-8">
      <path
         d="m 159.24623,534.67773 0,39.01368 q 0,1.29492 0.49805,1.85937 0.26562,0.33203 0.49804,0.43164 0.23243,0.0664 1.52735,0.39844 1.59375,0.36523 1.59375,1.82617 0,0.86328 -0.86328,1.39453 Q 161.86928,580 160.40834,580 l -1.12891,0 -14.80859,0 -0.86328,0 q -1.19531,0 -1.85938,-0.43164 -0.63086,-0.46484 -0.63086,-1.29492 0,-1.36133 1.32813,-1.79297 1.0957,-0.36524 1.26172,-0.43164 0.19922,-0.0996 0.39844,-0.39844 0.39843,-0.53125 0.39843,-1.69336 l 0,-33.23633 q 0,-1.16211 -0.39843,-1.69336 -0.19922,-0.29882 -0.39844,-0.36523 -0.16602,-0.0996 -1.26172,-0.46484 -1.32813,-0.43165 -1.32813,-1.79297 0,-0.83008 0.63086,-1.26172 0.66407,-0.46485 1.85938,-0.46485 l 0.86328,0 14.77539,0 z m 2.82227,27.95704 0,-3.55274 q 1.42773,-0.33203 1.99218,-0.69726 0.59766,-0.36524 1.0293,-1.12891 0.69727,-1.29492 0.69727,-3.48633 l 0,-10.625 q 0,-1.56055 -0.23243,-2.32422 -0.23242,-0.76367 -0.92968,-1.39453 -0.96289,-0.92969 -2.58985,-1.16211 l 0,-3.58594 q 6.83985,0 10.09375,1.29493 3.75196,1.49414 5.94336,4.58203 2.22461,3.15429 2.22461,7.73633 0,5.11328 -2.25781,8.36718 -2.25781,3.22071 -6.30859,4.74805 -3.35352,1.22852 -9.66211,1.22852 z"
         style="font-size:68px;fill:#000000"
         id="path4425-7"
         inkscape:connector-curvature="0" />
      <path
         d="m 187.23647,566.75195 0,-26.03125 q 0,-1.16211 -0.39844,-1.69336 -0.19922,-0.29882 -0.39844,-0.36523 -0.16602,-0.0996 -1.26172,-0.46484 -1.32812,-0.43165 -1.32812,-1.75977 0,-0.86328 0.63086,-1.29492 0.66406,-0.46485 1.85937,-0.46485 l 0.86328,0 14.8086,0 0.86328,0 1.19531,0.13282 q 0.56445,0.16601 0.92969,0.59765 0.36523,0.43164 0.36523,1.0293 0,1.32812 -1.32812,1.75977 -1.09571,0.36523 -1.29493,0.46484 -0.16601,0.0664 -0.36523,0.36523 -0.39844,0.53125 -0.39844,1.69336 l 0,27.85742 q 0,2.82227 0.13282,3.95118 0.16601,1.0957 0.63085,1.99218 0.43165,0.83008 0.9629,1.19532 0.53125,0.36523 2.02539,0.83007 l 0,4.34961 -0.73047,0 q -4.31641,0 -7.17188,-0.76367 -3.35351,-0.89648 -5.87695,-2.65625 -2.52344,-1.75976 -3.58594,-3.95117 -1.1289,-2.32422 -1.1289,-6.77344 z m 21.54882,14.14453 0,-4.34961 q 3.32032,-0.43164 5.54493,-2.72265 2.52343,-2.62305 2.52343,-7.53711 l 0,-21.64844 q 0,-4.54883 -3.48633,-6.3418 -1.02929,-0.53125 -1.36132,-0.89648 -0.29883,-0.39844 -0.29883,-1.12891 0,-0.86328 0.63086,-1.22851 0.63086,-0.36524 2.05859,-0.36524 l 8.13477,0 q 1.02929,0 1.36133,0.0664 0.36523,0.0332 0.69726,0.23242 0.86328,0.49805 0.86328,1.36133 0,0.73047 -0.53125,1.22852 -0.16601,0.16601 -1.42773,0.89648 -1.46094,0.79688 -2.29102,2.45703 -0.83008,1.62695 -0.83008,3.71875 l 0,21.68164 q 0,5.57813 -2.45703,9.16406 -1.79297,2.65625 -5.14648,4.25 -1.66016,0.79688 -3.98438,1.16211 z"
         style="font-size:68px;fill:#000000"
         id="path4427-1"
         inkscape:connector-curvature="0" />
      <path
         d="m 255.30287,534.67773 0,39.01368 q 0,1.29492 0.49805,1.85937 0.26562,0.33203 0.49805,0.43164 0.23242,0.0664 1.52734,0.39844 1.59375,0.36523 1.59375,1.82617 0,0.86328 -0.86328,1.39453 Q 257.92592,580 256.43178,580 l -1.09571,0 -14.80859,0 -1.0957,0 q -1.46094,0 -2.22461,-0.43164 -0.73047,-0.46484 -0.73047,-1.36133 0,-1.46094 1.59375,-1.82617 1.29492,-0.33203 1.52734,-0.39844 0.23243,-0.0996 0.46485,-0.43164 0.49804,-0.56445 0.49804,-1.85937 l 0,-39.01368 14.74219,0 z m 11.48828,0 0,13.58008 q 0,0.96289 -0.56445,1.56055 -0.53125,0.59766 -1.39453,0.59766 -0.83008,0 -1.39453,-0.53125 -0.53125,-0.56446 -0.69727,-1.52735 l -0.33203,-2.02539 q -0.49805,-3.08789 -1.92578,-5.3457 -0.89649,-1.39453 -2.42383,-2.29102 l 0,-4.01758 8.73242,0 z m -37.65234,0 8.73242,0 0,4.01758 q -1.56055,0.89649 -2.42383,2.29102 -1.42773,2.25781 -1.92578,5.3457 l -0.33203,2.02539 q -0.16602,0.96289 -0.73047,1.52735 -0.53125,0.53125 -1.36133,0.53125 -0.86328,0 -1.42773,-0.59766 -0.53125,-0.59766 -0.53125,-1.56055 l 0,-13.58008 z"
         style="font-size:68px;fill:#000000"
         id="path4429-2"
         inkscape:connector-curvature="0" />
      <path
         d="m 289.66811,534.67773 17.66406,30.67969 0,14.64258 -9.06445,0 -22.54493,-38.84766 q -0.73047,-1.26172 -1.19531,-1.75976 -0.46484,-0.49805 -1.19531,-0.73047 l -1.26172,-0.46484 q -0.49805,-0.16602 -0.79688,-0.59766 -0.29882,-0.43164 -0.29882,-0.96289 0,-0.56445 0.29882,-1.0293 0.29883,-0.49805 0.79688,-0.69726 0.56445,-0.23243 3.05469,-0.23243 l 14.54297,0 z m -13.91211,11.6543 3.51953,5.84375 0,17.79688 q 0,2.32421 0.76367,3.81836 0.79687,1.49414 2.49023,2.45703 l 0.9961,0.56445 q 0.86328,0.49805 0.86328,1.49414 0,0.76367 -0.63086,1.26172 Q 283.2267,580 281.56654,580 l -7.66992,0 q -3.02148,0 -3.02148,-1.72656 0,-0.59766 0.29883,-0.92969 0.33203,-0.36523 1.39453,-0.96289 3.1875,-1.75977 3.1875,-6.4082 l 0,-23.64063 z m 31.57617,13.71289 -3.51953,-5.94336 0,-9.19726 q 0,-2.78907 -0.83008,-4.25 -0.79688,-1.49414 -2.85547,-2.55664 -0.69727,-0.33204 -0.96289,-0.69727 -0.26563,-0.39844 -0.26563,-0.99609 0,-0.89649 0.56446,-1.29493 0.59765,-0.43164 1.89258,-0.43164 l 8.30078,0 q 1.69336,0 2.22461,0.53125 0.56445,0.53125 0.56445,1.26172 0,0.69727 -0.33203,1.0625 -0.29883,0.33203 -1.49414,0.92969 -1.75977,0.89648 -2.65625,2.75586 -0.63086,1.36133 -0.63086,3.68555 l 0,15.14062 z"
         style="font-size:68px;fill:#000000"
         id="path4431-8"
         inkscape:connector-curvature="0" />
      <path
         d="m 329.87709,534.67773 13.38086,0 9.23047,39.01368 q 0.26562,1.02929 0.59765,1.82617 0.29883,0.63086 1.32813,1.02929 0.86328,0.36524 1.19531,0.73047 0.33203,0.36524 0.33203,0.9961 0,1.72656 -2.58984,1.72656 l -16.56836,0 q -0.99609,0 -1.59375,-0.46484 -0.59766,-0.49805 -0.59766,-1.29493 0,-0.66406 0.26563,-0.99609 0.26562,-0.33203 1.19531,-0.83008 0.66406,-0.33203 0.92969,-0.73047 0.26562,-0.39843 0.26562,-0.99609 0,-0.56445 -0.0996,-0.99609 l -1.0625,-4.81446 -9.26367,0 0.89649,-3.95117 7.4375,0 -6.10938,-26.99414 0.83008,-3.25391 z m -2.29102,8.4336 1.69336,6.87304 -5.87695,21.44922 q -0.26562,0.92969 -0.26562,1.72657 0,2.09179 1.95898,2.98828 l 1.16211,0.53125 q 1.0957,0.49804 1.0957,1.66015 0,1.66016 -2.42383,1.66016 l -8.43359,0 q -1.22851,0 -1.95898,-0.49805 -0.69727,-0.53125 -0.69727,-1.42773 0,-0.96289 1.46094,-1.59375 1.36133,-0.59766 1.99219,-1.0625 0.66406,-0.49805 1.26171,-1.32813 0.92969,-1.36132 1.52735,-3.61914 l 7.5039,-27.35937 z"
         style="font-size:68px;fill:#000000"
         id="path4433-2"
         inkscape:connector-curvature="0" />
      <path
         d="m 388.34779,534.67773 14.74219,0 0.89649,0 q 2.49023,0 2.49023,1.72657 0,1.36132 -1.32813,1.79297 -1.0957,0.36523 -1.29492,0.46484 -0.16601,0.0664 -0.36523,0.36523 -0.39844,0.53125 -0.39844,1.69336 l 0,33.23633 q 0,1.16211 0.39844,1.69336 0.19922,0.29883 0.36523,0.39844 0.19922,0.0664 1.29492,0.43164 1.32813,0.43164 1.32813,1.79297 0,1.72656 -2.49023,1.72656 l -0.89649,0 -14.77539,0 -1.0957,0 q -1.46094,0 -2.22461,-0.43164 -0.73047,-0.46484 -0.73047,-1.36133 0,-1.46094 1.59375,-1.82617 1.29492,-0.33203 1.52734,-0.39844 0.23242,-0.0996 0.46485,-0.39844 0.49804,-0.59765 0.49804,-1.89257 l 0,-39.01368 z m -12.21875,0 6.54102,18.62696 2.88867,-10.06055 0,11.02344 -7.66992,25.73242 -1.75977,0 -12.88281,-38.2168 q -0.66406,-1.92578 -1.39453,-2.58984 -0.43164,-0.43164 -1.49414,-0.63086 -2.1582,-0.46484 -2.1582,-2.05859 0,-0.86329 0.59765,-1.32813 0.63086,-0.49805 1.79297,-0.49805 l 15.53906,0 z m -12.88281,15.27344 3.51953,10.02735 0,9.99414 q 0,1.52734 0.0996,2.1914 0.13281,0.66406 0.53125,1.46094 0.69727,1.46094 1.92578,2.19141 l 1.22852,0.79687 q 1.26172,0.76367 1.26172,1.69336 0,1.69336 -2.49024,1.69336 l -8.33398,0 q -2.49024,0 -2.49024,-1.66016 0,-0.53125 0.19922,-0.79687 0.23242,-0.29883 0.86328,-0.66406 3.68555,-1.99219 3.68555,-6.90625 l 0,-20.02149 z"
         style="font-size:68px;fill:#000000"
         id="path4435-8"
         inkscape:connector-curvature="0" />
      <path
         d="m 442.23647,534.67773 13.38085,0 9.23047,39.01368 q 0.26563,1.02929 0.59766,1.82617 0.29883,0.63086 1.32812,1.02929 0.86329,0.36524 1.19532,0.73047 0.33203,0.36524 0.33203,0.9961 0,1.72656 -2.58985,1.72656 l -16.56835,0 q -0.9961,0 -1.59375,-0.46484 -0.59766,-0.49805 -0.59766,-1.29493 0,-0.66406 0.26562,-0.99609 0.26563,-0.33203 1.19532,-0.83008 0.66406,-0.33203 0.92968,-0.73047 0.26563,-0.39843 0.26563,-0.99609 0,-0.56445 -0.0996,-0.99609 l -1.0625,-4.81446 -9.26367,0 0.89648,-3.95117 7.4375,0 -6.10937,-26.99414 0.83008,-3.25391 z m -2.29102,8.4336 1.69336,6.87304 -5.87695,21.44922 q -0.26563,0.92969 -0.26563,1.72657 0,2.09179 1.95899,2.98828 l 1.1621,0.53125 q 1.09571,0.49804 1.09571,1.66015 0,1.66016 -2.42383,1.66016 l -8.43359,0 q -1.22852,0 -1.95899,-0.49805 -0.69726,-0.53125 -0.69726,-1.42773 0,-0.96289 1.46093,-1.59375 1.36133,-0.59766 1.99219,-1.0625 0.66406,-0.49805 1.26172,-1.32813 0.92969,-1.36132 1.52734,-3.61914 l 7.50391,-27.35937 z"
         style="font-size:68px;fill:#000000"
         id="path4437-5"
         inkscape:connector-curvature="0" />
      <path
         d="m 489.15248,534.67773 0,39.01368 q 0,1.29492 0.49805,1.85937 0.26562,0.33203 0.49804,0.43164 0.23243,0.0664 1.52735,0.39844 1.59375,0.36523 1.59375,1.82617 0,0.86328 -0.86328,1.39453 Q 491.77553,580 490.31459,580 l -1.12891,0 -14.80859,0 -0.86328,0 q -1.19531,0 -1.85938,-0.43164 -0.63086,-0.46484 -0.63086,-1.29492 0,-1.36133 1.32813,-1.79297 1.0957,-0.36524 1.26172,-0.43164 0.19922,-0.0996 0.39844,-0.39844 0.39843,-0.53125 0.39843,-1.69336 l 0,-33.23633 q 0,-1.16211 -0.39843,-1.69336 -0.19922,-0.29882 -0.39844,-0.36523 -0.16602,-0.0996 -1.26172,-0.46484 -1.32813,-0.43165 -1.32813,-1.79297 0,-0.83008 0.63086,-1.26172 0.66407,-0.46485 1.85938,-0.46485 l 0.86328,0 14.77539,0 z m 10.19336,23.10938 q 3.05469,0.46484 4.68164,1.0293 1.66016,0.56445 2.98828,1.52734 1.39453,1.0293 2.125,2.45703 0.76367,1.42774 0.76367,3.02149 l 0,6.87304 q 0,1.0625 0.69727,1.0625 0.26562,0 0.43164,-0.13281 0.19922,-0.16602 0.53125,-0.59766 0.83008,-1.1289 1.69336,-1.1289 0.56445,0 1.12891,0.59765 0.56445,0.59766 0.56445,1.19532 0,1.02929 -0.99609,2.52343 -0.9629,1.46094 -2.42383,2.62305 -1.36133,1.0957 -2.95508,1.56055 -1.59375,0.49804 -3.75195,0.49804 -4.38282,0 -6.83985,-2.49023 -2.45703,-2.52344 -2.45703,-7.00586 l 0,-5.57812 q 0,-1.85938 -0.0332,-2.15821 -0.16602,-1.32812 -0.92969,-2.29101 -0.96289,-1.16211 -2.75586,-1.36133 l 0,-3.55274 q 1.79297,-0.26562 2.55664,-0.92968 0.66406,-0.59766 0.89649,-1.36133 0.26562,-0.76367 0.26562,-2.25781 l 0,-8.79883 q 0,-2.0918 -0.83008,-3.1211 -0.79687,-1.02929 -2.92187,-1.62695 l 0,-3.68555 0.86328,0 q 3.68555,0 6.27539,0.26563 3.85156,0.36523 6.87305,2.52344 4.34961,3.08789 4.34961,8.79882 0,4.68165 -2.92188,7.66993 -1.22851,1.26172 -2.88867,2.05859 -1.62695,0.79688 -4.98047,1.79297 z"
         style="font-size:68px;fill:#000000"
         id="path4439-9"
         inkscape:connector-curvature="0" />
      <path
         d="m 536.69936,534.67773 0,45.32227 -14.77539,0 -0.86329,0 q -1.19531,0 -1.85937,-0.43164 -0.63086,-0.46484 -0.63086,-1.29492 0,-1.36133 1.32812,-1.79297 1.09571,-0.36524 1.26172,-0.43164 0.19922,-0.0996 0.39844,-0.39844 0.39844,-0.53125 0.39844,-1.69336 l 0,-33.23633 q 0,-1.16211 -0.39844,-1.69336 -0.19922,-0.29882 -0.39844,-0.36523 -0.16601,-0.0996 -1.26172,-0.46484 -1.32812,-0.43165 -1.32812,-1.79297 0,-0.83008 0.63086,-1.26172 0.66406,-0.46485 1.85937,-0.46485 l 0.86329,0 14.77539,0 z m 2.95507,0 13.38086,0 0,11.75391 q 0,1.0293 -0.39843,1.49414 -0.39844,0.46484 -1.26172,0.46484 -0.73047,0 -1.0625,-0.29882 -0.33203,-0.29883 -0.63086,-1.22852 -1.26172,-3.85156 -3.71875,-5.87695 -2.42383,-2.02539 -6.3086,-2.42383 l 0,-3.88477 z m -0.16601,24.17188 0,-3.85156 q 1.92578,-0.92969 2.85547,-2.02539 0.92968,-1.09571 1.36133,-2.92188 0.26562,-1.26172 0.69726,-1.72656 0.43164,-0.49805 1.22852,-0.49805 1.0625,0 1.46093,0.83008 0.23243,0.43164 0.23243,1.95898 l 0,12.65039 q 0,1.56055 -0.36524,2.15821 -0.33203,0.59765 -1.26172,0.59765 -0.76367,0 -1.19531,-0.46484 -0.43164,-0.46484 -0.69727,-1.56055 -0.56445,-2.29101 -1.62695,-3.51953 -1.0293,-1.22851 -2.68945,-1.62695 z M 539.68764,580 l 0,-3.58594 q 2.1582,-0.33203 3.55273,-0.92969 1.42774,-0.59765 2.85547,-1.82617 1.42773,-1.22851 2.25781,-2.52343 0.86328,-1.32813 1.62696,-3.48633 0.36523,-1.0625 0.76367,-1.42774 0.39844,-0.39843 1.0957,-0.39843 0.92969,0 1.29492,0.56445 0.36524,0.53125 0.36524,1.89258 l 0,11.7207 -13.8125,0 z"
         style="font-size:68px;fill:#000000"
         id="path4441-0"
         inkscape:connector-curvature="0" />
      <path
         d="m 571.86147,534.67773 13.38085,0 9.23047,39.01368 q 0.26563,1.02929 0.59766,1.82617 0.29883,0.63086 1.32812,1.02929 0.86329,0.36524 1.19532,0.73047 0.33203,0.36524 0.33203,0.9961 0,1.72656 -2.58985,1.72656 l -16.56835,0 q -0.9961,0 -1.59375,-0.46484 -0.59766,-0.49805 -0.59766,-1.29493 0,-0.66406 0.26562,-0.99609 0.26563,-0.33203 1.19532,-0.83008 0.66406,-0.33203 0.92968,-0.73047 0.26563,-0.39843 0.26563,-0.99609 0,-0.56445 -0.0996,-0.99609 l -1.0625,-4.81446 -9.26367,0 0.89648,-3.95117 7.4375,0 -6.10937,-26.99414 0.83008,-3.25391 z m -2.29102,8.4336 1.69336,6.87304 -5.87695,21.44922 q -0.26563,0.92969 -0.26563,1.72657 0,2.09179 1.95899,2.98828 l 1.1621,0.53125 q 1.09571,0.49804 1.09571,1.66015 0,1.66016 -2.42383,1.66016 l -8.43359,0 q -1.22852,0 -1.95899,-0.49805 -0.69726,-0.53125 -0.69726,-1.42773 0,-0.96289 1.46093,-1.59375 1.36133,-0.59766 1.99219,-1.0625 0.66406,-0.49805 1.26172,-1.32813 0.92969,-1.36132 1.52734,-3.61914 l 7.50391,-27.35937 z"
         style="font-size:68px;fill:#000000"
         id="path4443-0"
         inkscape:connector-curvature="0" />
      <path
         d="m 635.77748,534.67773 0,39.01368 q 0,1.29492 0.49805,1.85937 0.26562,0.33203 0.49804,0.43164 0.23243,0.0664 1.52735,0.39844 1.59375,0.36523 1.59375,1.82617 0,0.86328 -0.86328,1.39453 Q 638.40053,580 636.93959,580 l -1.12891,0 -14.80859,0 -0.86328,0 q -1.19531,0 -1.85938,-0.43164 -0.63086,-0.46484 -0.63086,-1.29492 0,-1.36133 1.32813,-1.79297 1.0957,-0.36524 1.26172,-0.43164 0.19922,-0.0996 0.39844,-0.39844 0.39843,-0.53125 0.39843,-1.69336 l 0,-33.23633 q 0,-1.16211 -0.39843,-1.69336 -0.19922,-0.29882 -0.39844,-0.36523 -0.16602,-0.0996 -1.26172,-0.46484 -1.32813,-0.43165 -1.32813,-1.79297 0,-0.83008 0.63086,-1.26172 0.66407,-0.46485 1.85938,-0.46485 l 0.86328,0 14.77539,0 z m 10.19336,23.10938 q 3.05469,0.46484 4.68164,1.0293 1.66016,0.56445 2.98828,1.52734 1.39453,1.0293 2.125,2.45703 0.76367,1.42774 0.76367,3.02149 l 0,6.87304 q 0,1.0625 0.69727,1.0625 0.26562,0 0.43164,-0.13281 0.19922,-0.16602 0.53125,-0.59766 0.83008,-1.1289 1.69336,-1.1289 0.56445,0 1.12891,0.59765 0.56445,0.59766 0.56445,1.19532 0,1.02929 -0.99609,2.52343 -0.9629,1.46094 -2.42383,2.62305 -1.36133,1.0957 -2.95508,1.56055 -1.59375,0.49804 -3.75195,0.49804 -4.38282,0 -6.83985,-2.49023 -2.45703,-2.52344 -2.45703,-7.00586 l 0,-5.57812 q 0,-1.85938 -0.0332,-2.15821 -0.16602,-1.32812 -0.92969,-2.29101 -0.96289,-1.16211 -2.75586,-1.36133 l 0,-3.55274 q 1.79297,-0.26562 2.55664,-0.92968 0.66406,-0.59766 0.89649,-1.36133 0.26562,-0.76367 0.26562,-2.25781 l 0,-8.79883 q 0,-2.0918 -0.83008,-3.1211 -0.79687,-1.02929 -2.92187,-1.62695 l 0,-3.68555 0.86328,0 q 3.68555,0 6.27539,0.26563 3.85156,0.36523 6.87305,2.52344 4.34961,3.08789 4.34961,8.79882 0,4.68165 -2.92188,7.66993 -1.22851,1.26172 -2.88867,2.05859 -1.62695,0.79688 -4.98047,1.79297 z"
         style="font-size:68px;fill:#000000"
         id="path4445-0"
         inkscape:connector-curvature="0" />
      <path
         d="m 682.66029,537.36719 q -1.69336,0.59765 -2.39062,1.62695 -0.69727,1.0293 -0.69727,3.02148 l 0,29.6836 q 0,2.92187 0.79688,4.11719 0.63086,0.99609 2.29101,1.42773 l 0,3.65234 q -7.37109,-0.59765 -12.35156,-5.54492 -6.47461,-6.4414 -6.47461,-17.96289 0,-5.77734 1.69336,-10.42578 1.72656,-4.68164 5.08008,-7.93555 2.55664,-2.49023 5.51172,-3.78515 2.95508,-1.29492 6.54101,-1.46094 l 0,3.58594 z m 2.72266,0 0,-3.58594 q 3.58594,0.16602 6.54102,1.46094 2.98828,1.29492 5.54492,3.78515 6.77343,6.60743 6.77343,18.36133 0,11.52149 -6.4746,17.96289 -4.98047,4.98047 -12.38477,5.54492 l 0,-3.65234 q 0.86328,-0.19922 1.32812,-0.49805 0.49805,-0.33203 0.89649,-0.92968 0.89648,-1.36133 0.89648,-4.11719 l 0,-29.6836 q 0,-1.75976 -0.59765,-2.78906 -0.39844,-0.69726 -0.96289,-1.0957 -0.53125,-0.39844 -1.56055,-0.76367 z"
         style="font-size:68px;fill:#000000"
         id="path4447-0"
         inkscape:connector-curvature="0" />
      <path
         d="m 726.48842,534.67773 0,45.32227 -14.77539,0 -0.86328,0 q -1.19532,0 -1.85938,-0.43164 -0.63086,-0.46484 -0.63086,-1.29492 0,-1.36133 1.32813,-1.79297 1.0957,-0.36524 1.26172,-0.43164 0.19921,-0.0996 0.39843,-0.39844 0.39844,-0.53125 0.39844,-1.69336 l 0,-33.23633 q 0,-1.16211 -0.39844,-1.69336 -0.19922,-0.29882 -0.39843,-0.36523 -0.16602,-0.0996 -1.26172,-0.46484 -1.32813,-0.43165 -1.32813,-1.79297 0,-0.83008 0.63086,-1.26172 0.66406,-0.46485 1.85938,-0.46485 l 0.86328,0 14.77539,0 z m 10.32617,21.84766 q 2.98828,0.59766 4.58203,1.16211 1.62695,0.56445 2.92188,1.42773 2.22461,1.42774 3.38672,3.78516 1.19531,2.32422 1.19531,5.21289 0,5.67774 -4.1836,8.86524 -2.1582,1.66015 -4.78125,2.35742 Q 737.34584,580 733.12904,580 l -3.95117,0 0,-3.48633 q 1.32813,-0.0996 2.0918,-0.36523 0.76367,-0.29883 1.36133,-0.96289 1.0957,-1.22852 1.0957,-3.81836 l 0,-7.53711 q 0,-1.66016 -0.29883,-2.58985 -0.26562,-0.92968 -1.0293,-1.69336 -0.56445,-0.59765 -1.22851,-0.86328 -0.66406,-0.26562 -1.89258,-0.43164 l 0,-3.45312 q 1.22852,-0.0996 1.89258,-0.33203 0.69726,-0.23243 1.26172,-0.76368 0.53125,-0.49804 0.89648,-1.29492 0.36524,-0.79687 0.39844,-1.46093 l 0,-1.82618 0,-5.74414 q 0,-0.89648 -0.29883,-1.85937 -0.29883,-0.9961 -0.73047,-1.56055 -0.63086,-0.76367 -1.42773,-1.12891 -0.76367,-0.36523 -2.0918,-0.49804 l 0,-3.65235 3.81836,0 q 7.57031,0 11.55469,3.1211 1.82617,1.42773 2.78906,3.45312 0.96289,2.02539 0.96289,4.38282 0,2.32421 -0.99609,4.38281 -0.96289,2.05859 -2.72266,3.41992 -1.29492,1.0625 -2.98828,1.72656 -1.69336,0.66406 -4.78125,1.36133 z"
         style="font-size:68px;fill:#000000"
         id="path4449-6"
         inkscape:connector-curvature="0" />
      <path
         d="m 771.37904,537.36719 q -1.69336,0.59765 -2.39062,1.62695 -0.69727,1.0293 -0.69727,3.02148 l 0,29.6836 q 0,2.92187 0.79688,4.11719 0.63086,0.99609 2.29101,1.42773 l 0,3.65234 q -7.37109,-0.59765 -12.35156,-5.54492 -6.47461,-6.4414 -6.47461,-17.96289 0,-5.77734 1.69336,-10.42578 1.72656,-4.68164 5.08008,-7.93555 2.55664,-2.49023 5.51172,-3.78515 2.95508,-1.29492 6.54101,-1.46094 l 0,3.58594 z m 2.72266,0 0,-3.58594 q 3.58594,0.16602 6.54102,1.46094 2.98828,1.29492 5.54492,3.78515 6.77343,6.60743 6.77343,18.36133 0,11.52149 -6.4746,17.96289 -4.98047,4.98047 -12.38477,5.54492 l 0,-3.65234 q 0.86328,-0.19922 1.32812,-0.49805 0.49805,-0.33203 0.89649,-0.92968 0.89648,-1.36133 0.89648,-4.11719 l 0,-29.6836 q 0,-1.75976 -0.59765,-2.78906 -0.39844,-0.69726 -0.96289,-1.0957 -0.53125,-0.39844 -1.56055,-0.76367 z"
         style="font-size:68px;fill:#000000"
         id="path4451-8"
         inkscape:connector-curvature="0" />
      <path
         d="m 821.881,534.67773 0,39.01368 q 0,1.29492 0.49804,1.85937 0.26563,0.33203 0.49805,0.43164 0.23242,0.0664 1.52734,0.39844 1.59375,0.36523 1.59375,1.82617 0,0.86328 -0.86328,1.39453 Q 824.50404,580 823.0099,580 l -1.0957,0 -14.80859,0 -1.09571,0 q -1.46093,0 -2.22461,-0.43164 -0.73047,-0.46484 -0.73047,-1.36133 0,-1.46094 1.59375,-1.82617 1.29493,-0.33203 1.52735,-0.39844 0.23242,-0.0996 0.46484,-0.43164 0.49805,-0.56445 0.49805,-1.85937 l 0,-39.01368 14.74219,0 z m 11.48828,0 0,13.58008 q 0,0.96289 -0.56446,1.56055 -0.53125,0.59766 -1.39453,0.59766 -0.83007,0 -1.39453,-0.53125 -0.53125,-0.56446 -0.69726,-1.52735 l -0.33203,-2.02539 q -0.49805,-3.08789 -1.92579,-5.3457 -0.89648,-1.39453 -2.42382,-2.29102 l 0,-4.01758 8.73242,0 z m -37.65235,0 8.73243,0 0,4.01758 q -1.56055,0.89649 -2.42383,2.29102 -1.42774,2.25781 -1.92578,5.3457 l -0.33203,2.02539 q -0.16602,0.96289 -0.73047,1.52735 -0.53125,0.53125 -1.36133,0.53125 -0.86328,0 -1.42774,-0.59766 -0.53125,-0.59766 -0.53125,-1.56055 l 0,-13.58008 z"
         style="font-size:68px;fill:#000000"
         id="path4453-1"
         inkscape:connector-curvature="0" />
      <path
         d="m 855.61537,580 -14.80859,0 -0.86328,0 q -1.19532,0 -1.85938,-0.43164 -0.63086,-0.46484 -0.63086,-1.29492 0,-1.36133 1.32813,-1.79297 1.0957,-0.36524 1.26172,-0.43164 0.19921,-0.0996 0.39843,-0.39844 0.39844,-0.53125 0.39844,-1.69336 l 0,-33.23633 q 0,-1.16211 -0.39844,-1.69336 -0.19922,-0.29882 -0.39843,-0.36523 -0.16602,-0.0996 -1.26172,-0.46484 -1.32813,-0.43165 -1.32813,-1.79297 0,-0.83008 0.63086,-1.26172 0.66406,-0.46485 1.85938,-0.46485 l 0.86328,0 14.80859,0 0.86328,0 q 1.19532,0 1.82617,0.46485 0.66407,0.43164 0.66407,1.26172 0,1.36132 -1.32813,1.79297 -1.0957,0.36523 -1.29492,0.46484 -0.16602,0.0664 -0.36523,0.36523 -0.39844,0.53125 -0.39844,1.69336 l 0,33.23633 q 0,1.16211 0.39844,1.69336 0.19921,0.29883 0.36523,0.39844 0.19922,0.0664 1.29492,0.43164 1.32813,0.43164 1.32813,1.79297 0,0.83008 -0.66407,1.29492 Q 857.67397,580 856.47865,580 l -0.86328,0 z"
         style="font-size:68px;fill:#000000"
         id="path4455-3"
         inkscape:connector-curvature="0" />
      <path
         d="m 882.67592,533.78125 0,4.01758 q -1.95899,0.29883 -2.92188,1.72656 -0.96289,1.42773 -0.96289,4.08398 l 0,27.42579 0,1.42773 q 0,0.76367 0.29883,1.62695 0.33203,0.83008 0.83008,1.42774 0.53125,0.66406 1.12891,0.96289 0.59765,0.26562 1.62695,0.36523 l 0,4.05078 q -6.44141,0 -11.18945,-3.35351 -4.1836,-2.95508 -6.3086,-7.93555 -2.125,-5.01367 -2.125,-11.85351 0,-5.01368 1.36133,-9.33008 1.39453,-4.34961 4.01758,-7.53711 2.65625,-3.2207 6.34179,-5.17969 3.71875,-1.95898 7.13868,-1.95898 l 0.76367,0.0332 z m 2.62305,4.05078 0,-4.01758 q 1.62695,0.26563 2.62304,0.56446 1.0293,0.29882 3.68555,1.26171 1.69336,0.59766 2.25781,0.59766 0.96289,0 1.46094,-0.86328 l 0.43164,-0.79688 q 0.39844,-0.79687 1.49414,-0.79687 0.89648,0 1.36133,0.53125 0.49805,0.53125 0.49805,1.56055 l 0,13.8125 q 0,1.32812 -0.59766,1.92578 -0.59766,0.59765 -1.36133,0.59765 -0.79687,0 -1.29492,-0.49804 -0.46484,-0.53125 -0.76367,-1.69336 -0.69727,-2.62305 -1.36133,-4.11719 -1.42774,-3.1543 -3.25391,-5.11328 -1.22851,-1.32813 -2.45703,-2.02539 -1.22851,-0.73047 -2.72265,-0.92969 z m 0.0996,43.06445 0,-4.05078 q 2.58985,-0.19922 5.44532,-1.95898 1.52734,-0.96289 2.72265,-2.55664 1.19532,-1.62696 1.79297,-3.55274 0.33203,-1.0625 0.76367,-1.49414 0.46485,-0.46484 1.19532,-0.46484 0.79687,0 1.32812,0.59766 0.53125,0.59765 0.53125,1.49414 0,1.49414 -1.16211,3.61914 -1.1289,2.125 -2.92187,3.91797 -2.19141,2.1914 -4.51563,3.2539 -2.29101,1.0625 -5.17969,1.19531 z"
         style="font-size:68px;fill:#000000"
         id="path4457-2"
         inkscape:connector-curvature="0" />
      <path
         d="m 919.43178,533.78125 0,3.81836 q -2.0586,0.56445 -3.1543,1.75976 -1.0625,1.16211 -1.0625,2.88868 0,1.66015 0.89649,2.92187 0.89648,1.22852 2.92187,2.35742 1.39453,0.76368 6.30859,2.92188 2.98829,1.29492 4.61524,2.35742 1.66015,1.0293 3.12109,2.58984 3.91797,4.11719 3.91797,9.79493 0,4.2832 -2.125,7.83593 -2.125,3.55274 -5.84375,5.57813 -1.99219,1.0625 -4.38281,1.66015 -2.35742,0.63086 -4.41602,0.63086 l 0,-3.78515 q 2.88867,-0.69727 4.15039,-1.92578 1.29493,-1.26172 1.29493,-3.38672 0,-2.22461 -1.99219,-3.91797 -1.32813,-1.0957 -5.04688,-2.72266 -4.08398,-1.79297 -5.61133,-2.55664 -1.49414,-0.76367 -2.88867,-1.79297 -6.24218,-4.44922 -6.24218,-11.85351 0,-3.78516 1.56054,-6.97266 1.56055,-3.2207 4.34961,-5.17969 3.88477,-2.72265 9.62891,-3.02148 z m 2.62304,3.81836 0,-3.65234 q 1.99219,0.13281 3.45313,0.53125 1.46094,0.36523 4.15039,1.49414 0.66406,0.26562 1.0957,0.26562 0.63086,0 0.92969,-0.43164 l 0.73047,-0.96289 q 0.53125,-0.73047 1.29492,-0.73047 0.89649,0 1.29492,0.66406 0.43164,0.63086 0.43164,2.02539 l 0,10.95704 q 0,0.96289 -0.56445,1.59375 -0.53125,0.59765 -1.39453,0.59765 -0.66406,0 -1.22852,-0.43164 -0.29882,-0.26562 -0.49804,-0.63086 -0.16602,-0.39844 -0.33203,-1.29492 -0.36524,-1.62695 -1.26172,-3.35352 -0.89649,-1.72656 -2.0918,-3.08789 -2.39062,-2.68945 -6.00977,-3.55273 z m -4.3496,39.51172 0,3.78515 q -2.72266,0 -6.00977,-1.56054 -1.22852,-0.56446 -1.69336,-0.73047 -0.46484,-0.16602 -0.89648,-0.16602 -0.66407,0 -0.9961,0.23242 -0.33203,0.19922 -1.0625,1.0625 -0.59765,0.73047 -1.29492,0.73047 -1.85937,0 -1.85937,-2.85547 l 0,-12.08593 q 0,-0.92969 0.53125,-1.56055 0.53125,-0.66406 1.32812,-0.69727 0.73047,-0.0332 1.12891,0.43165 0.43164,0.43164 0.73047,1.56054 0.76367,2.85547 2.1914,5.34571 1.46094,2.49023 3.38672,4.21679 1.95898,1.79297 4.51563,2.29102 z"
         style="font-size:68px;fill:#000000"
         id="path4459-7"
         inkscape:connector-curvature="0" />
    </g>
    <g
       transform="translate(-9.975256,-18.498149)"
       style="font-style:normal;font-variant:normal;font-weight:normal;font-stretch:normal;font-size:100px;line-height:125%;font-family:Stencil;-inkscape-font-specification:Stencil;letter-spacing:0px;word-spacing:0px;fill:#000000;fill-opacity:1;stroke:none"
       id="text4116-6">
      <path
         d="m 477.92004,606.67773 0,39.01368 q 0,1.29492 0.49805,1.85937 0.26563,0.33203 0.49805,0.43164 0.23242,0.0664 1.52734,0.39844 1.59375,0.36523 1.59375,1.82617 0,0.86328 -0.86328,1.39453 Q 480.54309,652 479.04895,652 l -1.0957,0 -14.8086,0 -1.0957,0 q -1.46094,0 -2.22461,-0.43164 -0.73047,-0.46484 -0.73047,-1.36133 0,-1.46094 1.59375,-1.82617 1.29492,-0.33203 1.52735,-0.39844 0.23242,-0.0996 0.46484,-0.43164 0.49805,-0.56445 0.49805,-1.85937 l 0,-39.01368 14.74218,0 z m 11.48829,0 0,13.58008 q 0,0.96289 -0.56446,1.56055 -0.53125,0.59766 -1.39453,0.59766 -0.83008,0 -1.39453,-0.53125 -0.53125,-0.56446 -0.69727,-1.52735 l -0.33203,-2.02539 q -0.49804,-3.08789 -1.92578,-5.3457 -0.89648,-1.39453 -2.42383,-2.29102 l 0,-4.01758 8.73243,0 z m -37.65235,0 8.73242,0 0,4.01758 q -1.56054,0.89649 -2.42382,2.29102 -1.42774,2.25781 -1.92579,5.3457 l -0.33203,2.02539 q -0.16601,0.96289 -0.73047,1.52735 -0.53125,0.53125 -1.36132,0.53125 -0.86329,0 -1.42774,-0.59766 -0.53125,-0.59766 -0.53125,-1.56055 l 0,-13.58008 z"
         style="font-size:68px;fill:#000000"
         id="path4416-6"
         inkscape:connector-curvature="0" />
      <path
         d="m 511.62122,606.67773 0,45.32227 -14.77539,0 -0.86329,0 q -1.19531,0 -1.85937,-0.43164 -0.63086,-0.46484 -0.63086,-1.29492 0,-1.36133 1.32812,-1.79297 1.09571,-0.36524 1.26172,-0.43164 0.19922,-0.0996 0.39844,-0.39844 0.39844,-0.53125 0.39844,-1.69336 l 0,-33.23633 q 0,-1.16211 -0.39844,-1.69336 -0.19922,-0.29882 -0.39844,-0.36523 -0.16601,-0.0996 -1.26172,-0.46484 -1.32812,-0.43165 -1.32812,-1.79297 0,-0.83008 0.63086,-1.26172 0.66406,-0.46485 1.85937,-0.46485 l 0.86329,0 14.77539,0 z m 2.95507,0 13.38086,0 0,11.75391 q 0,1.0293 -0.39843,1.49414 -0.39844,0.46484 -1.26172,0.46484 -0.73047,0 -1.0625,-0.29882 -0.33203,-0.29883 -0.63086,-1.22852 -1.26172,-3.85156 -3.71875,-5.87695 -2.42383,-2.02539 -6.3086,-2.42383 l 0,-3.88477 z m -0.16601,24.17188 0,-3.85156 q 1.92578,-0.92969 2.85547,-2.02539 0.92968,-1.09571 1.36133,-2.92188 0.26562,-1.26172 0.69726,-1.72656 0.43164,-0.49805 1.22852,-0.49805 1.0625,0 1.46093,0.83008 0.23243,0.43164 0.23243,1.95898 l 0,12.65039 q 0,1.56055 -0.36524,2.15821 -0.33203,0.59765 -1.26172,0.59765 -0.76367,0 -1.19531,-0.46484 -0.43164,-0.46484 -0.69727,-1.56055 -0.56445,-2.29101 -1.62695,-3.51953 -1.0293,-1.22851 -2.68945,-1.62695 z M 514.6095,652 l 0,-3.58594 q 2.1582,-0.33203 3.55273,-0.92969 1.42774,-0.59765 2.85547,-1.82617 1.42773,-1.22851 2.25781,-2.52343 0.86328,-1.32813 1.62696,-3.48633 0.36523,-1.0625 0.76367,-1.42774 0.39844,-0.39843 1.0957,-0.39843 0.92969,0 1.29492,0.56445 0.36524,0.53125 0.36524,1.89258 l 0,11.7207 -13.8125,0 z"
         style="font-size:68px;fill:#000000"
         id="path4418-4"
         inkscape:connector-curvature="0" />
      <path
         d="m 546.78333,606.67773 13.38085,0 9.23047,39.01368 q 0.26563,1.02929 0.59766,1.82617 0.29883,0.63086 1.32812,1.02929 0.86329,0.36524 1.19532,0.73047 0.33203,0.36524 0.33203,0.9961 0,1.72656 -2.58985,1.72656 l -16.56835,0 q -0.9961,0 -1.59375,-0.46484 -0.59766,-0.49805 -0.59766,-1.29493 0,-0.66406 0.26562,-0.99609 0.26563,-0.33203 1.19532,-0.83008 0.66406,-0.33203 0.92968,-0.73047 0.26563,-0.39843 0.26563,-0.99609 0,-0.56445 -0.0996,-0.99609 l -1.0625,-4.81446 -9.26367,0 0.89648,-3.95117 7.4375,0 -6.10937,-26.99414 0.83008,-3.25391 z m -2.29102,8.4336 1.69336,6.87304 -5.87695,21.44922 q -0.26563,0.92969 -0.26563,1.72657 0,2.09179 1.95899,2.98828 l 1.1621,0.53125 q 1.09571,0.49804 1.09571,1.66015 0,1.66016 -2.42383,1.66016 l -8.43359,0 q -1.22852,0 -1.95899,-0.49805 -0.69726,-0.53125 -0.69726,-1.42773 0,-0.96289 1.46093,-1.59375 1.36133,-0.59766 1.99219,-1.0625 0.66406,-0.49805 1.26172,-1.32813 0.92969,-1.36132 1.52734,-3.61914 l 7.50391,-27.35937 z"
         style="font-size:68px;fill:#000000"
         id="path4420-7"
         inkscape:connector-curvature="0" />
      <path
         d="m 605.25403,606.67773 14.74219,0 0.89648,0 q 2.49023,0 2.49023,1.72657 0,1.36132 -1.32812,1.79297 -1.0957,0.36523 -1.29492,0.46484 -0.16602,0.0664 -0.36524,0.36523 -0.39843,0.53125 -0.39843,1.69336 l 0,33.23633 q 0,1.16211 0.39843,1.69336 0.19922,0.29883 0.36524,0.39844 0.19922,0.0664 1.29492,0.43164 1.32812,0.43164 1.32812,1.79297 0,1.72656 -2.49023,1.72656 l -0.89648,0 -14.77539,0 -1.09571,0 q -1.46094,0 -2.22461,-0.43164 -0.73047,-0.46484 -0.73047,-1.36133 0,-1.46094 1.59375,-1.82617 1.29493,-0.33203 1.52735,-0.39844 0.23242,-0.0996 0.46484,-0.39844 0.49805,-0.59765 0.49805,-1.89257 l 0,-39.01368 z m -12.21875,0 6.54101,18.62696 2.88868,-10.06055 0,11.02344 -7.66993,25.73242 -1.75976,0 -12.88281,-38.2168 q -0.66407,-1.92578 -1.39454,-2.58984 -0.43164,-0.43164 -1.49414,-0.63086 -2.1582,-0.46484 -2.1582,-2.05859 0,-0.86329 0.59766,-1.32813 0.63086,-0.49805 1.79297,-0.49805 l 15.53906,0 z m -12.88281,15.27344 3.51953,10.02735 0,9.99414 q 0,1.52734 0.0996,2.1914 0.13281,0.66406 0.53125,1.46094 0.69726,1.46094 1.92578,2.19141 l 1.22851,0.79687 q 1.26172,0.76367 1.26172,1.69336 0,1.69336 -2.49023,1.69336 l -8.33399,0 q -2.49023,0 -2.49023,-1.66016 0,-0.53125 0.19922,-0.79687 0.23242,-0.29883 0.86328,-0.66406 3.68555,-1.99219 3.68555,-6.90625 l 0,-20.02149 z"
         style="font-size:68px;fill:#000000"
         id="path4422-7"
         inkscape:connector-curvature="0" />
    </g>
  </g>
</svg>
