<?xml version="1.0" encoding="UTF-8" standalone="no"?>
<!-- Generator: Adobe Illustrator 21.1.0, SVG Export Plug-In . SVG Version: 6.00 Build 0)  -->

<svg
   xmlns:dc="http://purl.org/dc/elements/1.1/"
   xmlns:cc="http://creativecommons.org/ns#"
   xmlns:rdf="http://www.w3.org/1999/02/22-rdf-syntax-ns#"
   xmlns:svg="http://www.w3.org/2000/svg"
   xmlns="http://www.w3.org/2000/svg"
   xmlns:sodipodi="http://sodipodi.sourceforge.net/DTD/sodipodi-0.dtd"
   xmlns:inkscape="http://www.inkscape.org/namespaces/inkscape"
   version="1.0"
   id="Layer_1"
   x="0px"
   y="0px"
   viewBox="0 0 177.192 19.137531"
   enable-background="new 0 0 179 30"
   xml:space="preserve"
   sodipodi:docname="parsons.svg"
   width="177.192"
   height="19.137531"
   inkscape:version="0.92.2 5c3e80d, 2017-08-06"><metadata
     id="metadata8"><rdf:RDF><cc:Work
         rdf:about=""><dc:format>image/svg+xml</dc:format><dc:type
           rdf:resource="http://purl.org/dc/dcmitype/StillImage" /><dc:title></dc:title></cc:Work></rdf:RDF></metadata><defs
     id="defs6" /><sodipodi:namedview
     pagecolor="#ffffff"
     bordercolor="#666666"
     borderopacity="1"
     objecttolerance="10"
     gridtolerance="10"
     guidetolerance="10"
     inkscape:pageopacity="0"
     inkscape:pageshadow="2"
     inkscape:window-width="688"
     inkscape:window-height="480"
     id="namedview4"
     showgrid="false"
     fit-margin-top="0"
     fit-margin-left="0"
     fit-margin-right="0"
     fit-margin-bottom="0"
     inkscape:zoom="1.6536313"
     inkscape:cx="33.944398"
     inkscape:cy="4.6077274"
     inkscape:window-x="0"
     inkscape:window-y="27"
     inkscape:window-maximized="0"
     inkscape:current-layer="Layer_1" /><path
     id="Path_2083"
     d="m 16.776,0.02980317 c 4.128,0 6.192,2.25600003 6.192,6.76800003 v 1.3 c 0,3.3599998 -1.344,5.3519998 -4.032,5.9759998 -1.142,0.182 -2.3,0.254 -3.456,0.216 H 6.768 v 4.82 H 0 V 0.02980317 Z m -2.3,9.28800003 c 1.2,0 1.8,-0.48 1.8,-1.44 v -1.08 c 0,-1.056 -0.6,-1.584 -1.8,-1.584 h -7.78 v 4.1 z M 20.524,19.109803 31.032,0.02980317 h 7.7 L 49.176,19.109803 h -7.272 l -1.8,-3.24 h -10.8 l -1.728,3.24 z m 10.8,-7.272 h 6.48 L 34.636,5.8618032 Z m 39.38,-0.864 c -0.29,0.204 -0.605,0.372 -0.936,0.5 1.457,0.618 2.356,2.098 2.232,3.676 v 3.96 h -6.408 v -3.888 c 0,-0.768 -0.433,-1.152 -1.3,-1.152 h -8.64 v 5.04 H 49.324 V 0.02980317 h 16.772 c 3.933,0 5.9,1.70400003 5.9,5.11200003 v 2.668 c 0.121,1.204 -0.363,2.3889998 -1.292,3.1639998 z M 63.936,9.3178032 c 1.248,0 1.872,-0.408 1.872,-1.224 v -1.584 c 0,-0.867 -0.504,-1.3 -1.512,-1.3 h -8.64 v 4.1 z m 26.712,4.0319998 v -0.36 c 0,-0.768 -0.696,-1.152 -2.088,-1.152 h -7.92 c -4.176,0 -6.264,-1.656 -6.264,-4.9679998 v -0.936 c 0,-2.544 0.84,-4.224 2.52,-5.04000003 1.104,-0.576 3.096,-0.864 5.976,-0.864 h 5.688 c 3.648,0 5.904,0.744 6.768,2.23200003 0.452,0.764 0.7,1.632 0.72,2.52 v 0.216 h -14.04 c -0.96,-0.096 -1.44,0.192 -1.44,0.864 v 0.288 c 0,0.624 0.36,0.936 1.08,0.936 h 8.856 c 4.08,0 6.12,1.848 6.12,5.5439998 v 0.864 c 0,2.208 -0.767,3.744 -2.3,4.608 -1.687,0.783 -3.544,1.13 -5.4,1.008 h -8 c -4.267,0 -6.4,-1.367 -6.4,-4.1 v -0.72 h 14.4 c 1.149,-0.003 1.724,-0.316 1.724,-0.94 z M 122.324,1.3258032 c 1.296,1.248 1.944,3.576 1.944,6.984 v 5.5439998 c -0.057,1.811 -1.034,3.467 -2.592,4.392 -1.716,0.677 -3.559,0.972 -5.4,0.864 h -10.3 c -2.085,0.112 -4.145,-0.498 -5.832,-1.728 -0.921,-0.891 -1.462,-2.103 -1.512,-3.384 V 8.3098032 c 0,-3.12 0.516,-5.28 1.548,-6.48 1.032,-1.20000003 3.012,-1.80000003 5.94,-1.80000003 h 9.804 c 3.405,0 5.539,0.432 6.4,1.29600003 z m -16.92,6.336 v 3.7479998 c -0.082,0.655 0.071,1.319 0.432,1.872 0.491,0.493 1.182,0.732 1.872,0.648 h 7.488 c 1.584,0 2.376,-0.696 2.376,-2.088 V 7.1618032 c 0,-1.296 -0.792,-1.944 -2.376,-1.944 h -6.984 c -0.764,-0.072 -1.531,0.092 -2.2,0.468 -0.485,0.536 -0.706,1.26 -0.604,1.976 z M 127.08,19.109803 V 0.02980317 h 9.288 L 146.304,12.485803 V 0.02980317 h 6.264 V 19.109803 h -9.144 L 133.632,6.8698032 V 19.109803 Z m 44.208,-5.76 v -0.36 c 0.066,-0.468 -0.204,-0.918 -0.648,-1.08 -0.501,-0.067 -1.007,-0.091 -1.512,-0.072 h -7.92 c -4.176,0 -6.264,-1.656 -6.264,-4.9679998 v -0.936 c 0,-2.544 0.84,-4.248 2.52,-5.11200003 1.947,-0.648 4,-0.917 6.048,-0.792 h 5.612 c 3.648,0 5.904,0.744 6.768,2.23200003 0.481,0.756 0.754,1.625 0.792,2.52 v 0.216 h -14.108 c -0.96,-0.096 -1.44,0.192 -1.44,0.864 v 0.288 c 0,0.624 0.36,0.936 1.08,0.936 h 8.928 c 1.398,-0.088 2.793,0.211 4.032,0.864 1.344,0.867 2.016,2.4269998 2.016,4.6799998 v 0.864 c 0,2.256 -0.744,3.792 -2.232,4.608 -1.684,0.794 -3.543,1.141 -5.4,1.008 h -8.064 c -4.272,0 -6.408,-1.367 -6.408,-4.1 v -0.72 h 14.4 c 1.2,-0.003 1.8,-0.316 1.8,-0.94 z"
     inkscape:connector-curvature="0"
     style="fill:#0077c8" /></svg>